 <svg  version="1.0" xmlns="http://www.w3.org/2000/svg"  width="300.000000pt" height="300.000000pt" viewBox="0 0 300.000000 300.000000"  preserveAspectRatio="xMidYMid meet">  <g transform="translate(0.000000,300.000000) scale(0.100000,-0.100000)" fill="#44ff00" stroke="none"> <path d="M1135 2680 l-80 -80 -110 0 -110 0 -205 -205 -205 -205 3 -107 3 -108 -80 -80 -81 -80 0 -290 0 -290 81 -80 80 -80 -2 -103 -3 -103 210 -210 209 -209 105 0 106 0 74 -75 74 -75 296 0 296 0 74 75 74 75 106 0 105 0 209 209 210 210 -3 103 -2 103 80 80 81 80 0 290 0 290 -81 80 -80 80 3 108 3 107 -205 205 -205 205 -110 0 -110 0 -80 80 -80 80 -285 0 -285 0 -80 -80z m704 -20 l64 -60 -403 0 -402 0 59 58 58 59 280 1 280 1 64 -59z m-1094 -370 l-280 -280 -3 82 -3 82 198 198 198 198 85 0 85 0 -280 -280z m1488 -27 l307 -308 0 -430 0 -430 -302 -302 -303 -303 -435 0 -435 0 -302 302 -303 303 0 430 0 430 303 306 302 306 430 1 430 2 308 -307z m110 109 l198 -198 -3 -82 -3 -82 -280 280 -280 280 85 0 85 0 198 -198z m-1913 -849 l0 -397 -60 59 -60 59 0 279 0 279 53 59 c28 32 55 59 60 59 4 0 7 -179 7 -397z m2209 336 l51 -57 0 -279 0 -279 -60 -59 -60 -59 0 398 c0 221 4 396 9 394 4 -1 31 -28 60 -59z m-1619 -1374 c0 0 -39 1 -86 3 l-86 4 -194 195 -194 195 0 82 0 82 280 -280 c154 -154 280 -280 280 -281z m1324 203 l-197 -197 -84 -3 c-45 -2 -82 -1 -80 2 1 3 126 129 277 280 l275 275 3 -80 3 -80 -197 -197z m-454 -238 c0 -3 -26 -31 -58 -63 l-58 -57 -275 0 -275 0 -57 58 c-31 32 -57 60 -57 62 0 3 176 5 390 5 215 0 390 -2 390 -5z"/> <path d="M1025 1535 l0 -465 58 0 57 0 0 362 c0 290 -3 360 -12 350 -10 -10 -14 -97 -18 -340 -5 -319 -6 -327 -25 -327 -20 0 -20 8 -23 419 -1 231 2 424 6 428 5 5 20 6 33 3 18 -5 66 -70 183 -248 88 -133 169 -252 180 -264 41 -48 65 -27 181 152 207 322 230 354 254 360 13 3 28 2 33 -3 4 -4 7 -197 6 -428 -3 -411 -3 -419 -23 -419 -19 0 -20 8 -25 325 -3 179 -9 331 -13 338 -13 19 -41 14 -64 -10 -11 -13 -79 -111 -151 -218 -118 -177 -134 -196 -161 -198 -28 -2 -36 8 -173 212 -131 197 -162 236 -176 222 -2 -3 63 -108 145 -233 l149 -228 52 -3 52 -3 152 231 153 230 3 -355 2 -355 58 0 57 0 0 465 0 465 -56 0 -55 0 -180 -275 c-98 -151 -181 -274 -184 -274 -3 0 -86 124 -184 275 l-179 274 -56 0 -56 0 0 -465z"/> </g> </svg> 