<?xml version="1.0" encoding="UTF-8"?>
<svg version="1.1" xmlns="http://www.w3.org/2000/svg" width="360" height="405">
<path d="M0 0 C0.75603516 -0.02449219 1.51207031 -0.04898438 2.29101562 -0.07421875 C13.21388536 -0.13009021 22.08357279 6.44423862 31.25 11.75 C32.49526347 12.46645745 33.74070932 13.18259801 34.98632812 13.8984375 C43.71690428 18.92190134 52.41716123 23.99744058 61.11010742 29.08569336 C68.73354006 33.54280791 76.39145473 37.93803052 84.0625 42.3125 C102.63169418 52.9031521 121.16317679 63.55925018 139.60424805 74.37182617 C144.26920888 77.10479018 148.94452795 79.81143047 153.6640625 82.44921875 C154.52459229 82.93422852 155.38512207 83.41923828 156.27172852 83.91894531 C157.85537619 84.80944486 159.44398635 85.69121298 161.03881836 86.56152344 C170.56257071 91.94070986 176.56661612 98.93702034 180.1875 109.375 C181.24414946 115.41839446 181.00998301 121.6008713 180.96386719 127.71289062 C180.97201244 129.53754426 180.98270393 131.36218802 180.99572754 133.18681335 C181.02292357 138.11055444 181.01254109 143.03353552 180.99345303 147.95728874 C180.97818096 153.12864998 180.9923728 158.29994947 181.00177002 163.47131348 C181.01266237 172.15303131 180.99836224 180.83444214 180.96972656 189.51611328 C180.9370774 199.52973553 180.94765607 209.54262461 180.980685 219.55622911 C181.00798019 228.17915605 181.0117223 236.80186326 180.99605298 245.42481947 C180.98673563 250.56379672 180.98534957 255.70243021 181.00527191 260.84138489 C181.02270297 265.67465565 181.01040405 270.50698824 180.97590637 275.34015846 C180.968025 277.10570028 180.97016141 278.87132212 180.98348236 280.63683128 C181.06800437 292.98474473 179.54339587 302.51680617 171.05078125 312.1875 C166.38014225 316.41520056 160.85743971 319.33791801 155.375 322.375 C153.63155382 323.3604261 151.88811738 324.34586996 150.14529419 325.33239746 C148.34665686 326.34872922 146.54536773 327.36023053 144.74365234 328.37109375 C139.19638081 331.48934789 133.69465277 334.68662634 128.1875 337.875 C126.02104229 339.12536211 123.854375 340.37536119 121.6875 341.625 C120.615 342.24375 119.5425 342.8625 118.4375 343.5 C82.6875 364.125 82.6875 364.125 79.43652344 366.00048828 C77.27302524 367.24871034 75.10961357 368.49708239 72.94628906 369.74560547 C67.48184983 372.89905256 62.01586355 376.04976096 56.546875 379.1953125 C54.34368454 380.46342794 52.14055903 381.73165624 49.9375 383 C48.86918945 383.61447998 47.80087891 384.22895996 46.70019531 384.86206055 C41.40227774 387.91640622 36.12341753 390.99797528 30.875 394.13671875 C29.8737207 394.73468262 28.87244141 395.33264648 27.84082031 395.94873047 C25.96197695 397.07395099 24.08611079 398.20416412 22.21386719 399.34033203 C14.8186125 403.77095043 8.9852712 405.73554111 0.375 405.75 C-0.38103516 405.77449219 -1.13707031 405.79898437 -1.91601562 405.82421875 C-12.83888536 405.88009021 -21.70857279 399.30576138 -30.875 394 C-32.12026347 393.28354255 -33.36570932 392.56740199 -34.61132812 391.8515625 C-43.34190428 386.82809866 -52.04216123 381.75255942 -60.73510742 376.66430664 C-68.35854006 372.20719209 -76.01645473 367.81196948 -83.6875 363.4375 C-102.25669418 352.8468479 -120.78817679 342.19074982 -139.22924805 331.37817383 C-143.89420888 328.64520982 -148.56952795 325.93856953 -153.2890625 323.30078125 C-154.14959229 322.81577148 -155.01012207 322.33076172 -155.89672852 321.83105469 C-157.48037619 320.94055514 -159.06898635 320.05878702 -160.66381836 319.18847656 C-170.18757071 313.80929014 -176.19161612 306.81297966 -179.8125 296.375 C-180.86914946 290.33160554 -180.63498301 284.1491287 -180.58886719 278.03710938 C-180.59701244 276.21245574 -180.60770393 274.38781198 -180.62072754 272.56318665 C-180.64792357 267.63944556 -180.63754109 262.71646448 -180.61845303 257.79271126 C-180.60318096 252.62135002 -180.6173728 247.45005053 -180.62677002 242.27868652 C-180.63766237 233.59696869 -180.62336224 224.91555786 -180.59472656 216.23388672 C-180.5620774 206.22026447 -180.57265607 196.20737539 -180.605685 186.19377089 C-180.63298019 177.57084395 -180.6367223 168.94813674 -180.62105298 160.32518053 C-180.61173563 155.18620328 -180.61034957 150.04756979 -180.63027191 144.90861511 C-180.64770297 140.07534435 -180.63540405 135.24301176 -180.60090637 130.40984154 C-180.593025 128.64429972 -180.59516141 126.87867788 -180.60848236 125.11316872 C-180.69300437 112.76525527 -179.16839587 103.23319383 -170.67578125 93.5625 C-166.00514225 89.33479944 -160.48243971 86.41208199 -155 83.375 C-153.25655382 82.3895739 -151.51311738 81.40413004 -149.77029419 80.41760254 C-147.97165686 79.40127078 -146.17036773 78.38976947 -144.36865234 77.37890625 C-138.82138081 74.26065211 -133.31965277 71.06337366 -127.8125 67.875 C-125.64604229 66.62463789 -123.479375 65.37463881 -121.3125 64.125 C-120.24 63.50625 -119.1675 62.8875 -118.0625 62.25 C-82.3125 41.625 -82.3125 41.625 -79.06152344 39.74951172 C-76.89802524 38.50128966 -74.73461357 37.25291761 -72.57128906 36.00439453 C-67.10684983 32.85094744 -61.64086355 29.70023904 -56.171875 26.5546875 C-53.96868454 25.28657206 -51.76555903 24.01834376 -49.5625 22.75 C-48.49418945 22.13552002 -47.42587891 21.52104004 -46.32519531 20.88793945 C-41.02727774 17.83359378 -35.74841753 14.75202472 -30.5 11.61328125 C-29.4987207 11.01531738 -28.49744141 10.41735352 -27.46582031 9.80126953 C-25.58697695 8.67604901 -23.71111079 7.54583588 -21.83886719 6.40966797 C-14.4436125 1.97904957 -8.6102712 0.01445889 0 0 Z " fill="#649AD2" transform="translate(179.8125,-0.375)"/>
<path d="M0 0 C3.78141215 3.26576504 4.89159363 6.55564274 5.26285553 11.5021677 C5.27897843 12.874619 5.28425832 14.24722438 5.28088379 15.61976624 C5.28682603 16.37919586 5.29276828 17.13862549 5.29889059 17.92106813 C5.31621175 20.46182797 5.31927654 23.00239874 5.32226562 25.54321289 C5.33152597 27.36682536 5.34157583 29.19043397 5.35235596 31.01403809 C5.37857502 35.96686767 5.39148887 40.91964305 5.40037727 45.87253118 C5.40624512 48.97008123 5.41445607 52.06761659 5.42338562 55.16515923 C5.45073166 64.86571497 5.47006526 74.56623698 5.4777894 84.2668286 C5.48674178 95.44736174 5.52179753 106.62740475 5.57979059 117.80778891 C5.62310545 126.46024506 5.64320237 135.11256376 5.64587164 143.76512712 C5.6479625 148.92775258 5.65966392 154.0899172 5.69551086 159.25242805 C5.72861262 164.11423055 5.73271688 168.97522936 5.71523285 173.8371048 C5.71369935 175.61396636 5.72228177 177.39087237 5.74214935 179.16762352 C5.87259718 191.56856128 4.39340049 201.09497918 -4.13671875 210.8125 C-8.80735775 215.04020056 -14.33006029 217.96291801 -19.8125 221 C-21.55594618 221.9854261 -23.29938262 222.97086996 -25.04220581 223.95739746 C-26.84084314 224.97372922 -28.64213227 225.98523053 -30.44384766 226.99609375 C-35.99111919 230.11434789 -41.49284723 233.31162634 -47 236.5 C-49.16645771 237.75036211 -51.333125 239.00036119 -53.5 240.25 C-54.5725 240.86875 -55.645 241.4875 -56.75 242.125 C-92.5 262.75 -92.5 262.75 -95.75097656 264.62548828 C-97.91447476 265.87371034 -100.07788643 267.12208239 -102.24121094 268.37060547 C-107.70565017 271.52405256 -113.17163645 274.67476096 -118.640625 277.8203125 C-120.84381546 279.08842794 -123.04694097 280.35665624 -125.25 281.625 C-126.31831055 282.23947998 -127.38662109 282.85395996 -128.48730469 283.48706055 C-133.78522226 286.54140622 -139.06408247 289.62297528 -144.3125 292.76171875 C-145.3137793 293.35968262 -146.31505859 293.95764648 -147.34667969 294.57373047 C-149.22552305 295.69895099 -151.10138921 296.82916412 -152.97363281 297.96533203 C-160.3688875 302.39595043 -166.2022288 304.36054111 -174.8125 304.375 C-175.56853516 304.39949219 -176.32457031 304.42398437 -177.10351562 304.44921875 C-188.02638536 304.50509021 -196.89607279 297.93076138 -206.0625 292.625 C-207.30776347 291.90854255 -208.55320932 291.19240199 -209.79882812 290.4765625 C-218.52940428 285.45309866 -227.22966123 280.37755942 -235.92260742 275.28930664 C-243.54604006 270.83219209 -251.20395473 266.43696948 -258.875 262.0625 C-277.44419418 251.4718479 -295.97567679 240.81574982 -314.41674805 230.00317383 C-319.08170888 227.27020982 -323.75702795 224.56356953 -328.4765625 221.92578125 C-329.76735718 221.1982666 -329.76735718 221.1982666 -331.08422852 220.45605469 C-332.66787619 219.56555514 -334.25648635 218.68378702 -335.85131836 217.81347656 C-342.26161578 214.19282541 -347.91012917 209.84112183 -351 203 C-342.37310911 197.62069241 -333.65906742 192.44975183 -324.8125 187.4375 C-322.36781453 186.04936288 -319.92398041 184.65973342 -317.48046875 183.26953125 C-316.55651306 182.74416779 -316.55651306 182.74416779 -315.6138916 182.20819092 C-311.26489131 179.73138118 -306.93500431 177.22327478 -302.61328125 174.69921875 C-301.42670399 174.00784658 -300.24009963 173.31652092 -299.0534668 172.62524414 C-296.81667421 171.32024936 -294.58233745 170.0110334 -292.35083008 168.69702148 C-290.83525513 167.81445679 -290.83525513 167.81445679 -289.2890625 166.9140625 C-287.96962646 166.1398999 -287.96962646 166.1398999 -286.62353516 165.35009766 C-283.81445389 163.9045161 -281.01680458 162.92429992 -278 162 C-277.63390625 162.63164062 -277.2678125 163.26328125 -276.890625 163.9140625 C-261.74796778 188.93550086 -237.18450612 208.86821578 -208.56640625 216.15625 C-207.38949219 216.4346875 -206.21257812 216.713125 -205 217 C-203.89527344 217.2990625 -202.79054687 217.598125 -201.65234375 217.90625 C-183.01270443 222.28727513 -160.09547102 222.42419147 -142 216 C-140.60131515 215.55655522 -139.20151933 215.1166033 -137.80078125 214.6796875 C-122.96248831 209.90993911 -110.05739826 202.92864381 -98 193 C-97.07574219 192.24074219 -96.15148437 191.48148438 -95.19921875 190.69921875 C-85.45942052 182.28193909 -77.45288275 172.12565992 -71 161 C-71.72711182 160.72325439 -72.45422363 160.44650879 -73.20336914 160.16137695 C-75.84711828 159.06348829 -78.25693592 157.82715854 -80.74609375 156.41796875 C-81.65584961 155.90395508 -82.56560547 155.38994141 -83.50292969 154.86035156 C-84.47133789 154.30831055 -85.43974609 153.75626953 -86.4375 153.1875 C-87.44071289 152.61870117 -88.44392578 152.04990234 -89.47753906 151.46386719 C-97.73896656 146.76184336 -105.92949552 141.94340434 -114.07983398 137.05151367 C-115.37836304 136.27578003 -115.37836304 136.27578003 -116.703125 135.484375 C-117.46270508 135.02772461 -118.22228516 134.57107422 -119.00488281 134.10058594 C-121.10121632 132.86551578 -121.10121632 132.86551578 -124 132 C-124.37125 133.08667969 -124.37125 133.08667969 -124.75 134.1953125 C-130.37201874 146.80971705 -143.64330384 153.73370547 -155.703125 158.8359375 C-170.4131374 164.02975704 -187.95732044 161.9295001 -201.87890625 155.71484375 C-218.02006393 147.65548964 -227.37864632 134.68446508 -233 118 C-237.41111517 103.62694054 -235.61486232 88.4225358 -229.375 74.9375 C-221.65748602 60.44824582 -209.57827677 49.47880073 -194 44 C-187.71876014 42.09558153 -182.04414797 41.69366587 -175.5 41.75 C-174.15228516 41.73839844 -174.15228516 41.73839844 -172.77734375 41.7265625 C-157.58263785 41.77079745 -144.25064202 47.92226442 -133 58 C-124 67.33926702 -124 67.33926702 -124 71 C-116.7996878 67.52284273 -109.88094189 63.69342471 -103 59.625 C-100.87273476 58.37572478 -98.74511842 57.12704725 -96.6171875 55.87890625 C-95.52631836 55.23840332 -94.43544922 54.59790039 -93.31152344 53.93798828 C-87.92999121 50.78857787 -82.52804976 47.67480693 -77.125 44.5625 C-76.04605469 43.94068848 -74.96710938 43.31887695 -73.85546875 42.67822266 C-71.66449064 41.41567477 -69.47340981 40.15330512 -67.28222656 38.89111328 C-61.8534006 35.76319853 -56.42679331 32.63143954 -51 29.5 C-44.92283836 25.99355517 -38.84559527 22.48725299 -32.76715088 18.98303223 C-31.01658759 17.97380896 -29.26609589 16.96446164 -27.515625 15.95507812 C-25.33607835 14.6983234 -23.15640168 13.44179414 -20.9765625 12.18554688 C-13.97138717 8.14583558 -6.98141493 4.0806316 0 0 Z " fill="#00579B" transform="translate(355,101)"/>
<path d="M0 0 C1.19882812 1.06154297 1.19882812 1.06154297 2.421875 2.14453125 C3.38609375 2.96566406 4.3503125 3.78679687 5.34375 4.6328125 C14.5549701 12.6273179 21.92609157 21.79556719 28.421875 32.14453125 C28.421875 32.80453125 28.421875 33.46453125 28.421875 34.14453125 C27.68888184 34.56114014 26.95588867 34.97774902 26.20068359 35.40698242 C23.36935722 37.01740695 20.53880181 38.62916724 17.70895386 40.2421875 C16.436909 40.96722566 15.16471313 41.69199895 13.8923645 42.41650391 C4.21519686 47.92966351 -5.3995276 53.53606231 -14.91064453 59.33276367 C-15.75095215 59.83783447 -16.59125977 60.34290527 -17.45703125 60.86328125 C-18.54866577 61.5274707 -18.54866577 61.5274707 -19.66235352 62.20507812 C-21.578125 63.14453125 -21.578125 63.14453125 -24.578125 63.14453125 C-26.26953125 61.01953125 -26.26953125 61.01953125 -28.140625 58.14453125 C-36.07349944 46.88823036 -48.72800882 38.59251962 -62.26171875 35.5390625 C-81.686941 33.22817034 -97.77324339 35.95339601 -113.640625 47.76953125 C-124.92334608 57.09003997 -132.37814103 70.72432379 -134.578125 85.14453125 C-135.70990918 102.10360987 -132.47537002 118.89520113 -121.328125 132.14453125 C-111.92630467 142.79354811 -98.55441575 151.23280457 -84.09912109 152.33325195 C-81.42240795 152.41197881 -78.75582622 152.41758176 -76.078125 152.39453125 C-74.73041016 152.40613281 -74.73041016 152.40613281 -73.35546875 152.41796875 C-58.15691169 152.37372259 -44.83865739 146.21724377 -33.578125 136.14453125 C-30.20191133 132.44601862 -26.82992709 128.64813543 -24.578125 124.14453125 C-21.1867072 124.8146652 -18.5668475 126.1199918 -15.5625 127.8125 C-14.56919678 128.3698584 -13.57589355 128.9272168 -12.55249023 129.50146484 C-11.48844971 130.10555176 -10.42440918 130.70963867 -9.328125 131.33203125 C-7.68662476 132.25749756 -7.68662476 132.25749756 -6.01196289 133.20166016 C5.53394869 139.7320971 16.98971802 146.41718816 28.421875 153.14453125 C19.81933711 175.71054042 -4.41364058 193.23269066 -25.55322266 203.06298828 C-33.67334399 206.67080189 -41.91344603 209.21643444 -50.578125 211.14453125 C-51.70347656 211.49386719 -52.82882813 211.84320313 -53.98828125 212.203125 C-60.38960936 213.8047779 -67.02244149 213.4915844 -73.578125 213.45703125 C-74.61741653 213.45479553 -74.61741653 213.45479553 -75.67770386 213.45251465 C-85.95864052 213.41264818 -95.60830041 212.83813298 -105.578125 210.14453125 C-106.73183594 209.87769531 -107.88554687 209.61085938 -109.07421875 209.3359375 C-138.50375905 201.95394579 -163.94161554 180.43609936 -179.51171875 154.8203125 C-183.14960254 148.54101612 -185.93597565 141.89090309 -188.578125 135.14453125 C-189.17947266 133.63632812 -189.17947266 133.63632812 -189.79296875 132.09765625 C-200.06333537 104.03823952 -198.0809611 71.1246707 -185.578125 44.14453125 C-180.38074936 33.47829244 -174.52714419 23.97838652 -166.578125 15.14453125 C-165.61132812 13.98244141 -165.61132812 13.98244141 -164.625 12.796875 C-147.4252451 -7.58413537 -118.65688563 -23.44223672 -91.94238281 -25.71044922 C-58.70058307 -27.74944437 -26.12559606 -22.22429061 0 0 Z " fill="#FDFEFE" transform="translate(255.578125,108.85546875)"/>
<path d="M0 0 C1.02240817 1.49994014 1.96513618 3.05424008 2.875 4.625 C18.51992944 29.77325435 44.1808226 48.18188136 73 55 C74.10472656 55.2990625 75.20945313 55.598125 76.34765625 55.90625 C94.98729557 60.28727513 117.90452898 60.42419147 136 54 C137.39868485 53.55655522 138.79848067 53.1166033 140.19921875 52.6796875 C155.03751169 47.90993911 167.94260174 40.92864381 180 31 C181.38638672 29.86111328 181.38638672 29.86111328 182.80078125 28.69921875 C192.42886989 20.37848019 199.68180288 10.32154325 207 0 C210.39002721 1.29108191 213.52160831 2.75781541 216.67578125 4.546875 C217.57393555 5.05492676 218.47208984 5.56297852 219.39746094 6.08642578 C220.84040527 6.90989502 220.84040527 6.90989502 222.3125 7.75 C223.8269873 8.61020752 223.8269873 8.61020752 225.37207031 9.48779297 C233.69626071 14.22813542 241.98335866 19.03185227 250.2434082 23.88305664 C255.05072627 26.70606228 259.86897212 29.50074668 264.734375 32.22265625 C265.62479492 32.72458496 266.51521484 33.22651367 267.43261719 33.74365234 C269.10516008 34.68425891 270.78270183 35.61604862 272.46582031 36.53759766 C274.36031 37.60808842 276.18911754 38.79345685 278 40 C278 44.21242117 276.21641712 45.70984628 273.42700195 48.72680664 C270.79516623 51.19185265 268.14324555 52.93865573 265.0546875 54.796875 C264.20284126 55.31126381 264.20284126 55.31126381 263.33378601 55.83604431 C257.21725378 59.51038543 251.01998687 63.04468716 244.8125 66.5625 C242.34443247 67.96636027 239.87734636 69.3719422 237.41015625 70.77734375 C236.79046967 71.13006348 236.17078308 71.4827832 235.53231812 71.84619141 C229.25932594 75.41793187 223.0022335 79.01705151 216.75 82.625 C215.67967529 83.24262207 214.60935059 83.86024414 213.5065918 84.49658203 C206.36652071 88.62166749 199.24306203 92.77458369 192.125 96.9375 C182.31962496 102.67095899 172.46845507 108.32204893 162.6003418 113.9465332 C156.66873668 117.32810727 150.74289808 120.71899563 144.83203125 124.13671875 C144.24895203 124.47378342 143.6658728 124.81084808 143.06512451 125.15812683 C140.30477658 126.75436521 137.54552443 128.35246249 134.78759766 129.95288086 C113.65142266 142.18717777 113.65142266 142.18717777 103.375 142.3125 C102.60542969 142.34150391 101.83585938 142.37050781 101.04296875 142.40039062 C90.01772752 142.52043094 81.19375496 135.98275597 71.9375 130.625 C70.69223653 129.90854255 69.44679068 129.19240199 68.20117188 128.4765625 C59.47059572 123.45309866 50.77033877 118.37755942 42.07739258 113.28930664 C34.45395994 108.83219209 26.79604527 104.43696948 19.125 100.0625 C0.55580582 89.4718479 -17.97567679 78.81574982 -36.41674805 68.00317383 C-41.08170888 65.27020982 -45.75702795 62.56356953 -50.4765625 59.92578125 C-51.33709229 59.44077148 -52.19762207 58.95576172 -53.08422852 58.45605469 C-54.66787619 57.56555514 -56.25648635 56.68378702 -57.85131836 55.81347656 C-64.26161578 52.19282541 -69.91012917 47.84112183 -73 41 C-64.37308388 35.62067668 -55.65877481 30.45030452 -46.8125 25.4375 C-44.3704545 24.04929952 -41.92934577 22.65945582 -39.48828125 21.26953125 C-38.87272369 20.91928894 -38.25716614 20.56904663 -37.62295532 20.20819092 C-33.25410198 17.72043996 -28.8955131 15.2153851 -24.54296875 12.69921875 C-23.94603714 12.35416794 -23.34910553 12.00911713 -22.73408508 11.65361023 C-19.88006586 10.00314708 -17.02714126 8.35081207 -14.17504883 6.69702148 C-13.15822021 6.10864502 -12.1413916 5.52026855 -11.09375 4.9140625 C-10.20365234 4.3979541 -9.31355469 3.8818457 -8.39648438 3.35009766 C-2.44990958 0 -2.44990958 0 0 0 Z " fill="#004381" transform="translate(77,263)"/>
<path d="M0 0 C1.34771484 -0.01160156 1.34771484 -0.01160156 2.72265625 -0.0234375 C17.91736215 0.02079745 31.24935798 6.17226442 42.5 16.25 C51.5 25.58926702 51.5 25.58926702 51.5 29.25 C52.16 29.58 52.82 29.91 53.5 30.25 C52.91476563 30.56710938 52.32953125 30.88421875 51.7265625 31.2109375 C48.64765331 32.88445871 45.57316406 34.56596195 42.5 36.25 C41.87270996 36.59321289 41.24541992 36.93642578 40.59912109 37.29003906 C30.33448682 42.91635587 20.19160998 48.73246525 10.09350586 54.65209961 C2.81023473 58.91683089 -4.50567957 63.12129863 -11.8404541 67.29650879 C-21.30166185 72.68303537 -30.74160796 78.10366054 -40.125 83.625 C-41.51162842 84.43723022 -41.51162842 84.43723022 -42.92626953 85.26586914 C-43.76786621 85.7633667 -44.60946289 86.26086426 -45.4765625 86.7734375 C-46.20955566 87.20575684 -46.94254883 87.63807617 -47.69775391 88.08349609 C-49.64273786 89.25313967 -49.64273786 89.25313967 -51.5 91.25 C-59.28727748 72.88377954 -63.08178444 55.57788832 -55.28125 36.2265625 C-48.20789115 20.9402481 -36.66218159 9.97680607 -21.265625 3.22265625 C-13.99719544 0.66638653 -7.65935681 -0.0659342 0 0 Z " fill="#649AD2" transform="translate(179.5,142.75)"/>
<path d="M0 0 C2.51015715 1.30134875 4.85726667 2.63623365 7.25 4.125 C8.73725568 5.02643382 10.22561613 5.92604645 11.71484375 6.82421875 C12.53968262 7.32356934 13.36452148 7.82291992 14.21435547 8.33740234 C17.37495 10.22378699 20.56056312 12.06440227 23.75390625 13.89453125 C24.62693893 14.39518097 24.62693893 14.39518097 25.51760864 14.90594482 C28.4318706 16.57602195 31.34778901 18.2431523 34.26464844 19.90869141 C35.33875977 20.52534668 36.41287109 21.14200195 37.51953125 21.77734375 C38.95969604 22.60093384 38.95969604 22.60093384 40.42895508 23.44116211 C42.74113727 24.84305018 44.87330445 26.33379089 47 28 C45.24089279 37.54637449 35.52261095 44.80677662 28 50 C24.42009798 51.93089204 20.78946118 53.53025571 17 55 C16.19304687 55.35191406 15.38609375 55.70382812 14.5546875 56.06640625 C0.30424318 61.27413743 -17.45765668 58.70614783 -30.87890625 52.71484375 C-39.97102909 48.17510509 -50.52490438 40.45642377 -55 31 C-54.83544922 29.07104492 -54.83544922 29.07104492 -54 27 C-52.06420898 25.48291016 -52.06420898 25.48291016 -49.49609375 24.0390625 C-48.06015869 23.21740601 -48.06015869 23.21740601 -46.59521484 22.37915039 C-45.55316895 21.80028076 -44.51112305 21.22141113 -43.4375 20.625 C-41.25073108 19.3877274 -39.06455058 18.14941434 -36.87890625 16.91015625 C-35.74727051 16.27223145 -34.61563477 15.63430664 -33.44970703 14.97705078 C-30.02497832 13.01431524 -26.64773535 10.98803588 -23.27734375 8.93359375 C-21.66678101 7.96075439 -21.66678101 7.96075439 -20.02368164 6.96826172 C-17.95705292 5.71742014 -15.89734365 4.4550594 -13.84545898 3.18017578 C-12.90387939 2.61669434 -11.9622998 2.05321289 -10.9921875 1.47265625 C-10.17089355 0.97000244 -9.34959961 0.46734863 -8.50341797 -0.05053711 C-5.25945142 -1.28086536 -3.32225584 -0.87573523 0 0 Z " fill="#014381" transform="translate(184,204)"/>
<path d="M0 0 C4.62 0 9.24 0 14 0 C14 4.62 14 9.24 14 14 C18.29 14 22.58 14 27 14 C27 18.29 27 22.58 27 27 C22.71 27 18.42 27 14 27 C14 31.62 14 36.24 14 41 C9.38 41 4.76 41 0 41 C0 36.38 0 31.76 0 27 C-4.29 27 -8.58 27 -13 27 C-13 22.71 -13 18.42 -13 14 C-8.71 14 -4.42 14 0 14 C0 9.38 0 4.76 0 0 Z " fill="#F5F8FB" transform="translate(323,182)"/>
<path d="M0 0 C4.62 0 9.24 0 14 0 C14 4.62 14 9.24 14 14 C18.29 14 22.58 14 27 14 C27 18.29 27 22.58 27 27 C22.71 27 18.42 27 14 27 C14 31.62 14 36.24 14 41 C9.38 41 4.76 41 0 41 C0 36.38 0 31.76 0 27 C-4.29 27 -8.58 27 -13 27 C-13 22.71 -13 18.42 -13 14 C-8.71 14 -4.42 14 0 14 C0 9.38 0 4.76 0 0 Z " fill="#F5F9FB" transform="translate(273,182)"/>
<path d="M0 0 C2.60045875 2.3024119 3.84739183 4.49896677 5.1875 7.6875 C5.53167969 8.49574219 5.87585938 9.30398438 6.23046875 10.13671875 C6.48441406 10.75160156 6.73835938 11.36648438 7 12 C6.01 12.33 5.02 12.66 4 13 C3.896875 12.29875 3.79375 11.5975 3.6875 10.875 C2.90723399 7.61206941 1.52217762 4.9781736 0 2 C0 1.34 0 0.68 0 0 Z " fill="#5891CD" transform="translate(69,251)"/>
</svg>
