<?xml version="1.0" encoding="UTF-8"?>
<svg version="1.1" xmlns="http://www.w3.org/2000/svg" width="96" height="96">
<path d="M0 0 C3.45462112 0.25589786 4.27381547 1.28626163 6.75 3.875 C9 7 9 7 9 10 C10.216875 9.95875 11.43375 9.9175 12.6875 9.875 C16.21894127 9.86245492 18.80003566 10.40001783 22 12 C21.75118125 15.64934161 21.44418394 17.5154357 18.9375 20.25 C16 22 16 22 12.125 22.4375 C9.96347297 22.77651991 9.96347297 22.77651991 8 24 C6.01881018 27.06634152 4.4991169 30.25716524 2.89453125 33.53515625 C-3.06771549 44.43930647 -13.04919732 50.5392393 -24.66015625 54.1328125 C-35.4176421 56.65768471 -50.79590293 57.08359135 -60.91015625 52.37890625 C-68.55527506 47.33455683 -71.67077395 40.66472092 -74 32 C-74 27.71 -74 23.42 -74 19 C-38.36 18.505 -38.36 18.505 -2 18 C-2.495 17.01 -2.495 17.01 -3 16 C-3.94101877 4.76206434 -3.94101877 4.76206434 0 0 Z " fill="#2295EC" transform="translate(74,27)"/>
<path d="M0 0 C3.3 0 6.6 0 10 0 C10 3.3 10 6.6 10 10 C6.7 10 3.4 10 0 10 C0 6.7 0 3.4 0 0 Z " fill="#2294EB" transform="translate(56,34)"/>
<path d="M0 0 C3.3 0 6.6 0 10 0 C10 3.3 10 6.6 10 10 C6.7 10 3.4 10 0 10 C0 6.7 0 3.4 0 0 Z " fill="#2294EB" transform="translate(44,34)"/>
<path d="M0 0 C3.3 0 6.6 0 10 0 C10 3.3 10 6.6 10 10 C6.7 10 3.4 10 0 10 C0 6.7 0 3.4 0 0 Z " fill="#2294EB" transform="translate(32,34)"/>
<path d="M0 0 C3.3 0 6.6 0 10 0 C10 3.3 10 6.6 10 10 C6.7 10 3.4 10 0 10 C0 6.7 0 3.4 0 0 Z " fill="#2294EB" transform="translate(20,34)"/>
<path d="M0 0 C3.3 0 6.6 0 10 0 C10 3.3 10 6.6 10 10 C6.7 10 3.4 10 0 10 C0 6.7 0 3.4 0 0 Z " fill="#2294EB" transform="translate(8,34)"/>
<path d="M0 0 C3.3 0 6.6 0 10 0 C10 3.3 10 6.6 10 10 C6.7 10 3.4 10 0 10 C0 6.7 0 3.4 0 0 Z " fill="#2294EB" transform="translate(44,22)"/>
<path d="M0 0 C3.3 0 6.6 0 10 0 C10 3.3 10 6.6 10 10 C6.7 10 3.4 10 0 10 C0 6.7 0 3.4 0 0 Z " fill="#2294EB" transform="translate(32,22)"/>
<path d="M0 0 C3.3 0 6.6 0 10 0 C10 3.3 10 6.6 10 10 C6.7 10 3.4 10 0 10 C0 6.7 0 3.4 0 0 Z " fill="#2294EB" transform="translate(20,22)"/>
<path d="M0 0 C3.3 0 6.6 0 10 0 C10 3.3 10 6.6 10 10 C6.7 10 3.4 10 0 10 C0 6.7 0 3.4 0 0 Z " fill="#2294EB" transform="translate(44,10)"/>
</svg>
