<?xml version="1.0" encoding="UTF-8"?>
<svg version="1.1" xmlns="http://www.w3.org/2000/svg" width="100" height="100">
<path d="M0 0 C6.21022081 3.77380156 11.12756342 9.38269026 13.4375 16.3125 C13.4375 21.5925 13.4375 26.8725 13.4375 32.3125 C-1.7425 32.3125 -16.9225 32.3125 -32.5625 32.3125 C-29.20673631 45.00877315 -29.20673631 45.00877315 -21 53.1875 C-15.21534115 55.08066108 -8.94161458 55.66081665 -3.18359375 53.36328125 C0.08160451 51.39920564 2.48394988 49.26388966 5.125 46.5 C7.4375 44.3125 7.4375 44.3125 10.25 44 C11.3328125 44.1546875 11.3328125 44.1546875 12.4375 44.3125 C9.33485368 51.81056193 5.41718569 55.88927502 -1.8984375 59.44921875 C-8.99099909 61.74754149 -17.27622102 61.37095957 -24.0625 58.3125 C-30.44030434 54.62008696 -34.17171129 49.18900986 -36.5625 42.3125 C-37.0249818 38.09267599 -36.97865595 33.86772258 -37 29.625 C-37.03287109 28.49126953 -37.06574219 27.35753906 -37.09960938 26.18945312 C-37.14801935 18.55387997 -36.05685518 12.61893855 -31.5625 6.3125 C-23.13900236 -1.66337701 -11.02711356 -5.19789513 0 0 Z M-27.9375 10.875 C-32.18299442 17.24324164 -31.77039355 19.59932909 -32.5625 28.3125 C-18.7025 28.3125 -4.8425 28.3125 9.4375 28.3125 C8.5207412 18.22815317 7.89467962 13.44354452 0.875 6.9375 C-9.28429235 0.16463843 -19.82530059 2.1223638 -27.9375 10.875 Z " fill="#000000" transform="translate(36.5625,21.6875)"/>
<path d="M0 0 C5.40838509 -0.45069876 5.40838509 -0.45069876 7.984375 1.51171875 C8.56703125 2.22972656 9.1496875 2.94773437 9.75 3.6875 C10.41515625 4.49703125 11.0803125 5.3065625 11.765625 6.140625 C12.50296875 7.08421875 13.2403125 8.0278125 14 9 C14.91127985 10.1407676 15.8227466 11.28138592 16.734375 12.421875 C17.65819901 13.59221415 18.58009316 14.76407939 19.5 15.9375 C20.16854004 16.7886438 20.16854004 16.7886438 20.85058594 17.65698242 C24 21.76198264 24 21.76198264 24 24 C24.66 24 25.32 24 26 24 C26.26949463 23.42258057 26.53898926 22.84516113 26.81665039 22.25024414 C28.01778491 19.96618041 29.36513445 18.04296626 30.93359375 15.99609375 C31.50013672 15.25552734 32.06667969 14.51496094 32.65039062 13.75195312 C33.53500977 12.60629883 33.53500977 12.60629883 34.4375 11.4375 C35.02337891 10.66986328 35.60925781 9.90222656 36.21289062 9.11132812 C41.7658816 1.88172466 41.7658816 1.88172466 44 0 C47.1875 -0.1875 47.1875 -0.1875 50 0 C45.31629314 7.28938522 40.12566598 14.04318998 34.68359375 20.77734375 C34.07902344 21.53917969 33.47445312 22.30101563 32.8515625 23.0859375 C32.30322754 23.7670459 31.75489258 24.4481543 31.18994141 25.14990234 C29.72952585 27.05390589 29.72952585 27.05390589 30 30 C31.31330254 32.1782212 31.31330254 32.1782212 33.10546875 34.45703125 C33.75966797 35.32263672 34.41386719 36.18824219 35.08789062 37.08007812 C35.78076172 37.98177734 36.47363281 38.88347656 37.1875 39.8125 C37.86103516 40.70259766 38.53457031 41.59269531 39.22851562 42.50976562 C42.07027964 46.24980431 44.92325158 49.95152733 47.98828125 53.51171875 C50 56 50 56 50 58 C47.26953125 58.296875 47.26953125 58.296875 44 58 C41.76171875 56.015625 41.76171875 56.015625 39.6875 53.25 C38.92953125 52.25871094 38.1715625 51.26742187 37.390625 50.24609375 C36.59341584 49.16430868 35.79655072 48.08227 35 47 C34.14232832 45.86459674 33.28294267 44.73048622 32.421875 43.59765625 C30.26099806 40.74662124 28.1246974 37.8781362 26 35 C22.69465139 36.10178287 22.22457426 36.67815712 20.2578125 39.38671875 C19.74863281 40.07830078 19.23945312 40.76988281 18.71484375 41.48242188 C18.19019531 42.21009766 17.66554688 42.93777344 17.125 43.6875 C9.18196041 54.57203929 9.18196041 54.57203929 6 58 C2.6875 58.375 2.6875 58.375 0 58 C1.45646723 54.84357225 3.2330729 52.20928982 5.3359375 49.4453125 C5.98820312 48.58292969 6.64046875 47.72054687 7.3125 46.83203125 C7.993125 45.93871094 8.67375 45.04539063 9.375 44.125 C15.39872186 36.21200411 15.39872186 36.21200411 21 28 C20.48953125 27.3915625 19.9790625 26.783125 19.453125 26.15625 C14.62785725 20.3385513 9.97994477 14.41534099 5.4375 8.375 C4.90092773 7.66408203 4.36435547 6.95316406 3.81152344 6.22070312 C0 1.12381213 0 1.12381213 0 0 Z " fill="#000000" transform="translate(50,22)"/>
</svg>
