<?xml version="1.0" encoding="UTF-8"?>
<svg version="1.1" xmlns="http://www.w3.org/2000/svg" width="160" height="160">
<path d="M0 0 C1.32 0 2.64 0 4 0 C10.66666667 13.33333333 17.33333333 26.66666667 24 40 C24.53109375 38.86820313 25.0621875 37.73640625 25.609375 36.5703125 C26.32227425 35.08823248 27.03585143 33.60647843 27.75 32.125 C28.09804687 31.37863281 28.44609375 30.63226562 28.8046875 29.86328125 C29.15273437 29.14785156 29.50078125 28.43242187 29.859375 27.6953125 C30.17358398 27.03547363 30.48779297 26.37563477 30.81152344 25.69580078 C32.26592683 23.62055715 33.68494927 22.95400442 36 22 C41.64176589 26.63692447 44.19539432 32.83210168 47.3125 39.3125 C47.86228516 40.43462891 48.41207031 41.55675781 48.97851562 42.71289062 C50.32820077 45.47094289 51.66829964 48.23323108 53 51 C55.13568714 51.2247135 55.13568714 51.2247135 56.69238281 49.45532227 C57.35592773 48.74947998 58.01947266 48.0436377 58.703125 47.31640625 C59.80333984 46.17268555 59.80333984 46.17268555 60.92578125 45.00585938 C62.46589893 43.38679448 63.99985291 41.76184231 65.52734375 40.13085938 C66.63529297 38.98520508 66.63529297 38.98520508 67.765625 37.81640625 C68.43368164 37.10943604 69.10173828 36.40246582 69.79003906 35.67407227 C72.50311646 33.61888317 74.65088275 33.320145 78 33 C80.41984665 36.62976997 80.89725392 40.01838767 81.60400391 44.23168945 C81.75059952 45.07105042 81.89719513 45.91041138 82.04823303 46.77520752 C82.53147344 49.55338431 83.00424513 52.33322824 83.4765625 55.11328125 C83.80952353 57.04526479 84.14297555 58.97716376 84.47689819 60.90898132 C85.17567406 64.96093449 85.86945261 69.01370211 86.55957031 73.06713867 C87.44344587 78.25705121 88.33811048 83.44503095 89.23635292 88.63247395 C89.92647103 92.62356386 90.61159511 96.61549824 91.29514694 100.60771751 C91.62311716 102.52047186 91.95245456 104.4329923 92.28319168 106.34527016 C92.74534204 109.02273789 93.2009415 111.70124039 93.65478516 114.38012695 C93.79190414 115.16735641 93.92902313 115.95458588 94.07029724 116.76567078 C94.75776068 120.86821993 95.37002383 124.82895189 95 129 C92.67114258 131.03540039 92.67114258 131.03540039 89.39453125 132.84765625 C88.80708633 133.18167953 88.21964142 133.51570282 87.61439514 133.85984802 C85.69127442 134.94812369 83.75254279 136.00473842 81.8125 137.0625 C79.81991545 138.18073902 77.83182506 139.30670608 75.84368896 140.43283081 C74.5049137 141.19017611 73.16461049 141.94482661 71.82281494 142.69680786 C64.82757402 146.62391373 58.04069392 150.86643484 51.26098633 155.15258789 C50.47103271 155.64879639 49.6810791 156.14500488 48.8671875 156.65625 C48.18769043 157.08744141 47.50819336 157.51863281 46.80810547 157.96289062 C41.85843749 160.80196564 36.52262891 160.73492348 31 160 C27.03503272 158.45172027 23.57910191 156.28763883 20 154 C17.91554972 152.7249577 15.83090618 151.45023131 13.74609375 150.17578125 C12.65925293 149.4998291 11.57241211 148.82387695 10.45263672 148.12744141 C6.82402643 145.87886283 3.15292134 143.70568267 -0.52734375 141.54296875 C-1.14799713 141.178013 -1.76865051 140.81305725 -2.40811157 140.43704224 C-3.64330764 139.71102393 -4.87860716 138.98518162 -6.11401367 138.25952148 C-9.02618975 136.54746296 -11.93406117 134.82836639 -14.83984375 133.10546875 C-15.81300537 132.52949951 -16.78616699 131.95353027 -17.78881836 131.36010742 C-20 130 -20 130 -21 129 C-20.7946887 121.09153409 -19.53019016 113.2316493 -18.26586914 105.43579102 C-18.09337143 104.34967026 -17.92087372 103.2635495 -17.7431488 102.14451599 C-17.17839638 98.59689725 -16.60707832 95.05037566 -16.03515625 91.50390625 C-15.63758633 89.02200376 -15.24024607 86.54006446 -14.84312439 84.05809021 C-13.90721911 78.21666333 -12.96649479 72.37602575 -12.02417797 66.53563017 C-11.16680881 61.2179573 -10.31710907 55.89908048 -9.4692145 50.57988983 C-8.54806128 44.80291973 -7.62039234 39.02701224 -6.69009209 33.25150871 C-6.29638774 30.80256694 -5.90448573 28.3533347 -5.51442146 25.9038105 C-4.96970984 22.48776143 -4.41758945 19.07299011 -3.86352539 15.65844727 C-3.70397369 14.64799347 -3.544422 13.63753967 -3.3800354 12.59646606 C-3.15089699 11.19859108 -3.15089699 11.19859108 -2.91712952 9.7724762 C-2.78753373 8.96674447 -2.65793795 8.16101274 -2.52441502 7.33086491 C-1.94321928 4.74762699 -1.04074556 2.43076336 0 0 Z " fill="#FEC927" transform="translate(43,0)"/>
<path d="M0 0 C1.32 0 2.64 0 4 0 C10.66666667 13.33333333 17.33333333 26.66666667 24 40 C24.53109375 38.86820313 25.0621875 37.73640625 25.609375 36.5703125 C26.32227425 35.08823248 27.03585143 33.60647843 27.75 32.125 C28.09804687 31.37863281 28.44609375 30.63226562 28.8046875 29.86328125 C29.15273437 29.14785156 29.50078125 28.43242187 29.859375 27.6953125 C30.17358398 27.03547363 30.48779297 26.37563477 30.81152344 25.69580078 C32.26592683 23.62055715 33.68494927 22.95400442 36 22 C41.53836143 26.61186974 44.21864499 32.62644458 47.375 39 C47.93316406 40.08023438 48.49132812 41.16046875 49.06640625 42.2734375 C49.58847656 43.31757812 50.11054687 44.36171875 50.6484375 45.4375 C51.36265869 46.85869141 51.36265869 46.85869141 52.09130859 48.30859375 C53.21181306 51.62735818 53.16282913 52.68736776 52 56 C49.97708092 58.60505568 47.64492749 60.87014024 45.29296875 63.17700195 C44.59217194 63.87998917 43.89137512 64.58297638 43.16934204 65.30726624 C40.85156795 67.6273511 38.5198306 69.93283758 36.1875 72.23828125 C34.57626756 73.84459131 32.96584494 75.45171406 31.35620117 77.05961609 C27.98271304 80.42546365 24.60286765 83.78474164 21.21777344 87.13891602 C16.86763785 91.44939742 12.52841494 95.77065349 8.19322205 100.09615803 C4.06984794 104.20958456 -0.05848968 108.31801346 -4.1875 112.42578125 C-4.98056549 113.21545099 -5.77363098 114.00512074 -6.59072876 114.81871986 C-8.82208797 117.03856619 -11.05690033 119.25486934 -13.29296875 121.4699707 C-13.9610556 122.13536865 -14.62914246 122.8007666 -15.31747437 123.48632812 C-19.88510056 128 -19.88510056 128 -21 128 C-20.40570317 120.45309228 -19.47328016 113.02113158 -18.26586914 105.54931641 C-18.09337143 104.46334167 -17.92087372 103.37736694 -17.7431488 102.25848389 C-17.17766041 98.7055511 -16.60669606 95.15352647 -16.03515625 91.6015625 C-15.63765482 89.11821978 -15.24031339 86.63485145 -14.84312439 84.15145874 C-14.01263913 78.96497959 -13.17930659 73.77896522 -12.34399414 68.59326172 C-11.37988895 62.60751273 -10.42286839 56.62066062 -9.4692145 50.63323843 C-8.54801091 44.85147395 -7.62032122 39.07076582 -6.69009209 33.29044724 C-6.29634423 30.83872103 -5.90444235 28.38669762 -5.51442146 25.93437576 C-4.96967997 22.51343446 -4.41755655 19.09376374 -3.86352539 15.67431641 C-3.70397369 14.66229156 -3.544422 13.65026672 -3.3800354 12.60757446 C-3.22727646 11.67421265 -3.07451752 10.74085083 -2.91712952 9.77920532 C-2.78753373 8.97217478 -2.65793795 8.16514423 -2.52441502 7.33365822 C-1.943619 4.74910331 -1.04138044 2.43178157 0 0 Z " fill="#FE9F00" transform="translate(43,0)"/>
<path d="M0 0 C2.32080544 2.91962687 4.0481472 5.86213316 5.69921875 9.203125 C6.18583984 10.1828125 6.67246094 11.1625 7.17382812 12.171875 C7.67333984 13.18765625 8.17285156 14.2034375 8.6875 15.25 C9.19861328 16.28125 9.70972656 17.3125 10.23632812 18.375 C11.49451825 20.91489782 12.74892921 23.45658991 14 26 C8.5664118 32.61072987 2.53553957 38.59214196 -3.5234375 44.62109375 C-4.63609385 45.73188169 -5.74852716 46.8428931 -6.86074829 47.95411682 C-9.7683127 50.85788934 -12.67886905 53.75864436 -15.59008789 56.65875244 C-18.56840429 59.62678263 -21.54384106 62.59769662 -24.51953125 65.56835938 C-30.34356123 71.38171083 -36.1707595 77.19187334 -42 83 C-42.33 82.34 -42.66 81.68 -43 81 C-42.1706543 78.96313477 -42.1706543 78.96313477 -40.82421875 76.44140625 C-40.33139404 75.50852783 -39.83856934 74.57564941 -39.33081055 73.61450195 C-38.78851807 72.60734131 -38.24622559 71.60018066 -37.6875 70.5625 C-37.13425049 69.51989014 -36.58100098 68.47728027 -36.01098633 67.40307617 C-34.87758015 65.26773698 -33.74109734 63.13402802 -32.6015625 61.00195312 C-30.82966972 57.68073459 -29.08183215 54.34754619 -27.33813477 51.01147461 C-22.69837786 42.14444926 -17.97477447 33.32190951 -13.25 24.5 C-12.9334848 23.90885406 -12.6169696 23.31770813 -12.29086304 22.70864868 C-8.22685458 15.12095791 -4.13375577 7.54992512 0 0 Z " fill="#F57F16" transform="translate(67,43)"/>
</svg>
