<?xml version="1.0" encoding="UTF-8"?>
<svg version="1.1" xmlns="http://www.w3.org/2000/svg" width="128" height="128">
<path d="M0 0 C0.9095343 -0.0087616 1.8190686 -0.01752319 2.75616455 -0.02655029 C5.75720176 -0.04852422 8.75676079 -0.0339985 11.7578125 -0.01708984 C13.84619428 -0.02045855 15.93457415 -0.02531162 18.02294922 -0.03158569 C22.39765101 -0.03895432 26.771842 -0.02825152 31.14648438 -0.00488281 C36.75239723 0.02360458 42.35711323 0.00720061 47.96298218 -0.02274513 C52.27474984 -0.04081815 56.58623402 -0.03505997 60.89801025 -0.02210617 C62.96486554 -0.01877219 65.03174661 -0.02285894 67.09857178 -0.03450394 C69.98828233 -0.04721243 72.87605845 -0.02783536 75.765625 0 C77.04533173 -0.01518173 77.04533173 -0.01518173 78.35089111 -0.03067017 C82.69855725 0.04686585 84.37979747 0.25095072 87.91113281 3.03115845 C90.63608394 6.64633283 90.62063387 8.88381081 90.33984375 13.27197266 C89.8828125 15.64697266 89.8828125 15.64697266 88.1953125 18.64697266 C83.1123226 21.71594769 77.72192975 22.07417492 71.8828125 22.64697266 C71.8828125 24.62697266 71.8828125 26.60697266 71.8828125 28.64697266 C75.17937966 29.74582838 77.655114 29.77269478 81.125 29.78759766 C82.97158203 29.81660156 82.97158203 29.81660156 84.85546875 29.84619141 C87.44906322 29.87994188 90.04290601 29.89826681 92.63671875 29.90087891 C93.87035156 29.92537109 95.10398437 29.94986328 96.375 29.97509766 C97.50276855 29.98444336 98.63053711 29.99378906 99.79248047 30.00341797 C103.8039858 30.83880492 105.31192846 32.53156926 107.8828125 35.64697266 C108.78468254 38.44807491 108.55761367 40.79781218 107.8828125 43.64697266 C106.1953125 46.52197266 106.1953125 46.52197266 102.8828125 48.64697266 C99.50471358 49.37025374 96.18219672 49.83582434 92.74609375 50.18994141 C89.75901335 50.37956417 89.75901335 50.37956417 87.8828125 52.64697266 C87.29935774 55.60443758 87.29935774 55.60443758 87.8828125 58.64697266 C91.01963294 61.7837931 94.22189592 61.82474383 98.4453125 62.08447266 C101.84745785 62.33206814 103.5895933 62.47649638 106.5703125 64.20947266 C108.40286667 67.61278754 108.88390335 70.87816006 107.8828125 74.64697266 C105.71812125 77.51261155 104.35216095 78.51808422 100.8671875 79.47509766 C99.79984375 79.61431641 98.7325 79.75353516 97.6328125 79.89697266 C96.55515625 80.04650391 95.4775 80.19603516 94.3671875 80.35009766 C93.54734375 80.44806641 92.7275 80.54603516 91.8828125 80.64697266 C91.8828125 82.62697266 91.8828125 84.60697266 91.8828125 86.64697266 C95.71277333 87.92362627 99.37363239 88.0175816 103.38671875 88.26806641 C105.8828125 88.64697266 105.8828125 88.64697266 107.8828125 90.64697266 C108.1328125 93.64697266 108.1328125 93.64697266 107.8828125 96.64697266 C105.18004124 99.34974392 103.66557309 98.93992676 99.88671875 99.02587891 C98.68853516 99.06003906 97.49035156 99.09419922 96.25585938 99.12939453 C94.36963867 99.1690332 94.36963867 99.1690332 92.4453125 99.20947266 C89.96735 99.26935144 87.48947437 99.33297695 85.01171875 99.40087891 C83.90900635 99.42480713 82.80629395 99.44873535 81.67016602 99.47338867 C78.79835834 99.53254027 78.79835834 99.53254027 75.8828125 100.64697266 C75.8828125 102.62697266 75.8828125 104.60697266 75.8828125 106.64697266 C80.39921073 108.15243873 85.08266995 108.00448228 89.81054688 108.16455078 C95.66825836 108.43241852 95.66825836 108.43241852 97.8828125 110.64697266 C98.0703125 114.20947266 98.0703125 114.20947266 97.8828125 117.64697266 C96.35593923 119.17384592 94.99551188 118.77596454 92.86573792 118.78068542 C92.0005957 118.78495041 91.13545349 118.78921539 90.24409485 118.79360962 C89.28770615 118.79315643 88.33131744 118.79270325 87.34594727 118.79223633 C85.84362045 118.79727425 85.84362045 118.79727425 84.3109436 118.80241394 C80.98202289 118.81195563 77.6531523 118.81386865 74.32421875 118.81494141 C72.02115355 118.81815169 69.71808856 118.82151558 67.4150238 118.82502747 C62.58030728 118.83102676 57.74560866 118.83286654 52.91088867 118.83227539 C46.70183208 118.83217371 40.4928897 118.84582855 34.28386021 118.8630476 C29.52535978 118.87414106 24.7668872 118.87619542 20.00837517 118.87566566 C17.71854191 118.8768497 15.42870802 118.88129496 13.13888741 118.88899803 C9.94219992 118.89874473 6.74576339 118.89594102 3.54907227 118.88989258 C2.59470779 118.89551208 1.64034332 118.90113159 0.65705872 118.90692139 C-0.21090332 118.9027269 -1.07886536 118.89853241 -1.97312927 118.89421082 C-2.72954429 118.89475558 -3.4859593 118.89530035 -4.26529598 118.89586163 C-6.1171875 118.64697266 -6.1171875 118.64697266 -8.1171875 116.64697266 C-8.3671875 113.64697266 -8.3671875 113.64697266 -8.1171875 110.64697266 C-5.20239617 107.73218132 -2.03160205 108.22476199 1.8828125 108.08447266 C7.04026047 108.07895293 7.04026047 108.07895293 11.8828125 106.64697266 C11.8828125 105.32697266 11.8828125 104.00697266 11.8828125 102.64697266 C9.31681847 101.36397564 7.37792964 101.47079564 4.5078125 101.40087891 C2.90679688 101.35157227 2.90679688 101.35157227 1.2734375 101.30126953 C-0.98687686 101.24007438 -3.24730026 101.18278221 -5.5078125 101.12939453 C-6.57515625 101.09523438 -7.6425 101.06107422 -8.7421875 101.02587891 C-9.72445313 101.00082275 -10.70671875 100.9757666 -11.71875 100.94995117 C-14.1171875 100.64697266 -14.1171875 100.64697266 -16.1171875 98.64697266 C-16.3828125 96.77197266 -16.3828125 96.77197266 -16.3671875 94.64697266 C-16.37234375 93.94572266 -16.3775 93.24447266 -16.3828125 92.52197266 C-16.1171875 90.64697266 -16.1171875 90.64697266 -14.1171875 88.64697266 C-12.171875 88.01416016 -12.171875 88.01416016 -9.9921875 87.52197266 C-8.7134375 87.23322266 -7.4346875 86.94447266 -6.1171875 86.64697266 C-6.1171875 84.66697266 -6.1171875 82.68697266 -6.1171875 80.64697266 C-6.87644531 80.47681641 -7.63570312 80.30666016 -8.41796875 80.13134766 C-9.90876953 79.76783203 -9.90876953 79.76783203 -11.4296875 79.39697266 C-12.41582031 79.16494141 -13.40195313 78.93291016 -14.41796875 78.69384766 C-17.52784796 77.48770058 -18.52345229 76.54322899 -20.1171875 73.64697266 C-20.97141414 66.91993785 -20.97141414 66.91993785 -18.32421875 62.97509766 C-13.58019331 59.53120099 -9.04094904 59.62531548 -3.3046875 59.33447266 C-2.23025391 59.26164062 -1.15582031 59.18880859 -0.04882812 59.11376953 C2.59444932 58.93755104 5.23719825 58.78270223 7.8828125 58.64697266 C7.8828125 56.66697266 7.8828125 54.68697266 7.8828125 52.64697266 C7.17672852 52.60733398 6.47064453 52.56769531 5.74316406 52.52685547 C2.53823484 52.33609842 -0.66413074 52.11686214 -3.8671875 51.89697266 C-4.97835938 51.83509766 -6.08953125 51.77322266 -7.234375 51.70947266 C-8.30429688 51.63212891 -9.37421875 51.55478516 -10.4765625 51.47509766 C-11.46108398 51.41225586 -12.44560547 51.34941406 -13.45996094 51.28466797 C-16.74591952 50.49608621 -18.01244521 49.24335144 -20.1171875 46.64697266 C-20.6484375 44.64697266 -20.6484375 44.64697266 -20.6171875 42.64697266 C-20.6275 41.98697266 -20.6378125 41.32697266 -20.6484375 40.64697266 C-19.82238246 37.5371184 -18.76863599 36.49691458 -16.1171875 34.64697266 C-12.97539543 34.08969209 -9.86462294 34.08688732 -6.6796875 34.08447266 C1.14800458 34.23696818 1.14800458 34.23696818 7.8828125 30.64697266 C8.71614583 27.64697266 8.71614583 27.64697266 7.8828125 24.64697266 C4.2071415 21.82055416 1.44917007 21.33021701 -3.1171875 21.27197266 C-7.09423284 21.00259151 -8.88132487 20.78758307 -12.3671875 18.70947266 C-14.79075063 14.46823718 -15.38172789 10.4075953 -14.1171875 5.64697266 C-9.92261477 0.08206117 -6.49642622 -0.07707 0 0 Z " fill="#FBF2DA" transform="translate(20.1171875,3.35302734375)"/>
<path d="M0 0 C0.66 0 1.32 0 2 0 C2 0.66 2 1.32 2 2 C3.32 2 4.64 2 6 2 C6 2.66 6 3.32 6 4 C7.32 4 8.64 4 10 4 C10 4.66 10 5.32 10 6 C10.928125 6.12375 11.85625 6.2475 12.8125 6.375 C16 7 16 7 19 9 C19 9.66 19 10.32 19 11 C16.525 10.505 16.525 10.505 14 10 C14.39830058 12.87862691 14.81785002 15.75142539 15.25 18.625 C15.35957031 19.43324219 15.46914063 20.24148437 15.58203125 21.07421875 C16.40701058 26.41487441 17.72309556 29.70521943 21 34 C21.4640625 35.11375 21.4640625 35.11375 21.9375 36.25 C24.13788016 39.87415555 28.68573573 40.22468519 32.5625 41.1875 C35.76379809 41.95869659 37.8511393 42.00677859 41 41 C41 41.99 41 42.98 41 44 C43.97 44 46.94 44 50 44 C50 44.66 50 45.32 50 46 C36.88467699 49.21660477 23.92338307 51.56406942 11.5546875 44.62890625 C1.71310756 37.67307772 -3.88585612 26.7210624 -6 15 C-5.6342318 12.13204478 -4.91558738 9.74676213 -4 7 C-3.34 6.67 -2.68 6.34 -2 6 C-1.27306096 4.02111039 -0.60183749 2.02045442 0 0 Z " fill="#D6D8D9" transform="translate(42,17)"/>
<path d="M0 0 C0.99 0.33 1.98 0.66 3 1 C5.06618749 0.90731495 5.06618749 0.90731495 7.1875 0.5625 C8.445625 0.376875 9.70375 0.19125 11 0 C10.67 0.66 10.34 1.32 10 2 C9.01 2 8.02 2 7 2 C7 3.32 7 4.64 7 6 C6.34 6 5.68 6 5 6 C5.66 8.64 6.32 11.28 7 14 C7.33 13.34 7.66 12.68 8 12 C8.99 12.33 9.98 12.66 11 13 C10.01 14.485 10.01 14.485 9 16 C9.66 16.33 10.32 16.66 11 17 C11 18.65 11 20.3 11 22 C11.66 21.67 12.32 21.34 13 21 C12.67 19.68 12.34 18.36 12 17 C13.32 17 14.64 17 16 17 C16 17.99 16 18.98 16 20 C17.93441615 21.89916483 20.02442206 23.50602585 22.15234375 25.18359375 C24 27 24 27 25 31 C28.63 31.33 32.26 31.66 36 32 C34.68 31.34 33.36 30.68 32 30 C34 29 34 29 37.375 29.5 C40.50098494 29.93117034 42.11395187 30.03897733 45 29 C45 29.99 45 30.98 45 32 C47.97 32 50.94 32 54 32 C54 32.66 54 33.32 54 34 C40.88467699 37.21660477 27.92338307 39.56406942 15.5546875 32.62890625 C6.80490709 26.44473942 1.9945432 17.71786331 -0.6875 7.5078125 C-1.03044549 4.75567496 -0.68948944 2.67177157 0 0 Z " fill="#7E7F7F" transform="translate(38,29)"/>
<path d="M0 0 C0.33 6.27 0.66 12.54 1 19 C2.32 18.01 3.64 17.02 5 16 C4.67 15.01 4.34 14.02 4 13 C6.97 13 9.94 13 13 13 C13 13.66 13 14.32 13 15 C9.535 16.485 9.535 16.485 6 18 C6.47346835 22.26121515 8.96139438 24.18373138 12 27 C12.66 27.66 13.32 28.32 14 29 C10.75 29.375 10.75 29.375 7 29 C4.75 26.0625 4.75 26.0625 3 23 C2.01 22.67 1.02 22.34 0 22 C0.57452746 25.93075644 0.57452746 25.93075644 3 29 C0.03 29 -2.94 29 -6 29 C-5.34 28.67 -4.68 28.34 -4 28 C-4.03029297 27.2886792 -4.06058594 26.5773584 -4.09179688 25.84448242 C-4.22851686 22.6255156 -4.36426972 19.4065087 -4.5 16.1875 C-4.54769531 15.06794922 -4.59539062 13.94839844 -4.64453125 12.79492188 C-4.68964844 11.72177734 -4.73476562 10.64863281 -4.78125 9.54296875 C-4.82314453 8.55321045 -4.86503906 7.56345215 -4.90820312 6.54370117 C-4.97485575 4.69674974 -5 2.84815371 -5 1 C-3 0 -3 0 0 0 Z " fill="#918F8C" transform="translate(95,67)"/>
<path d="M0 0 C0.66 0 1.32 0 2 0 C2 0.66 2 1.32 2 2 C3.32 2 4.64 2 6 2 C6 2.66 6 3.32 6 4 C7.32 4 8.64 4 10 4 C10 4.66 10 5.32 10 6 C10.928125 6.12375 11.85625 6.2475 12.8125 6.375 C16 7 16 7 19 9 C19 9.66 19 10.32 19 11 C16.525 10.505 16.525 10.505 14 10 C14.495 16.93 14.495 16.93 15 24 C12.8008587 19.60171741 12.48144941 16.81449408 12 12 C10.62714844 12.23396484 10.62714844 12.23396484 9.2265625 12.47265625 C7.44378906 12.76462891 7.44378906 12.76462891 5.625 13.0625 C4.44164062 13.25972656 3.25828125 13.45695312 2.0390625 13.66015625 C-1 14 -1 14 -3 13 C-3.33 13.66 -3.66 14.32 -4 15 C-4.66 15 -5.32 15 -6 15 C-5.47731534 12.23723823 -4.89130413 9.6739124 -4 7 C-3.34 6.67 -2.68 6.34 -2 6 C-1.27306096 4.02111039 -0.60183749 2.02045442 0 0 Z " fill="#C9C9C8" transform="translate(42,17)"/>
<path d="M0 0 C5.94 0 11.88 0 18 0 C18 1.98 18 3.96 18 6 C17.60167969 5.51917969 17.20335938 5.03835937 16.79296875 4.54296875 C14.56549753 2.62608175 13.21165331 2.52258357 10.3125 2.3125 C8.889375 2.209375 7.46625 2.10625 6 2 C6 5.63 6 9.26 6 13 C10.46840411 12.50351065 11.68987756 12.31012244 15 9 C15 11.97 15 14.94 15 18 C14.34 18 13.68 18 13 18 C12.67 17.01 12.34 16.02 12 15 C9.03 14.505 9.03 14.505 6 14 C6.08693141 15.79258558 6.19510504 17.58415144 6.3125 19.375 C6.37050781 20.37273437 6.42851562 21.37046875 6.48828125 22.3984375 C6.65714844 23.25695312 6.82601563 24.11546875 7 25 C7.99 25.66 8.98 26.32 10 27 C6.7 27 3.4 27 0 27 C0.66 26.67 1.32 26.34 2 26 C2.05799124 22.22923111 2.09359306 18.45857666 2.125 14.6875 C2.14175781 13.61564453 2.15851562 12.54378906 2.17578125 11.43945312 C2.18222656 10.41142578 2.18867188 9.38339844 2.1953125 8.32421875 C2.20578613 7.37635498 2.21625977 6.42849121 2.22705078 5.4519043 C2.17223875 2.74310751 2.17223875 2.74310751 0 0 Z " fill="#828281" transform="translate(19,69)"/>
<path d="M0 0 C2 2 2 2 2.1953125 4.6015625 C2.17210938 5.59929687 2.14890625 6.59703125 2.125 7.625 C2.10695313 8.62789062 2.08890625 9.63078125 2.0703125 10.6640625 C2.03550781 11.82035156 2.03550781 11.82035156 2 13 C2.99 13 3.98 13 5 13 C5 13.66 5 14.32 5 15 C-0.05002222 16.03590199 -4.87416389 16.10251672 -10 16 C-10.33 14.35 -10.66 12.7 -11 11 C-8.06171403 8.49701566 -5.82097239 7.53069061 -2 7 C-2 5.35 -2 3.7 -2 2 C-3.32 2 -4.64 2 -6 2 C-6.33 2.99 -6.66 3.98 -7 5 C-7.99 5 -8.98 5 -10 5 C-10 4.01 -10 3.02 -10 2 C-6.32653229 -0.44897847 -4.33643601 -0.31537716 0 0 Z " fill="#8F8D88" transform="translate(65,80)"/>
<path d="M0 0 C0.01458252 0.80743652 0.02916504 1.61487305 0.04418945 2.44677734 C0.11846086 6.0900127 0.21519025 9.73231033 0.3125 13.375 C0.33505859 14.64601563 0.35761719 15.91703125 0.38085938 17.2265625 C0.41630859 18.43828125 0.45175781 19.65 0.48828125 20.8984375 C0.51446533 22.01911621 0.54064941 23.13979492 0.56762695 24.29443359 C0.71031006 25.18727051 0.85299316 26.08010742 1 27 C1.99 27.66 2.98 28.32 4 29 C1.03 29 -1.94 29 -5 29 C-4.67 28.34 -4.34 27.68 -4 27 C-3.84733388 25.26131256 -3.75067404 23.51752499 -3.68359375 21.7734375 C-3.64169922 20.7421875 -3.59980469 19.7109375 -3.55664062 18.6484375 C-3.51732422 17.56820312 -3.47800781 16.48796875 -3.4375 15.375 C-3.39431641 14.28703125 -3.35113281 13.1990625 -3.30664062 12.078125 C-3.2003547 9.3855483 -3.09831943 6.69287747 -3 4 C-3.99 3.67 -4.98 3.34 -6 3 C-4.60722783 0.21445565 -3.01148006 0 0 0 Z " fill="#828281" transform="translate(47,67)"/>
<path d="M0 0 C2.01822917 0.06510417 4.03645833 0.13020833 6.0546875 0.1953125 C6.3846875 1.5153125 6.7146875 2.8353125 7.0546875 4.1953125 C4.4146875 3.5353125 1.7746875 2.8753125 -0.9453125 2.1953125 C0.18952674 5.59983021 0.60746687 5.7958689 3.6171875 7.3828125 C4.7515625 7.9809375 5.8859375 8.5790625 7.0546875 9.1953125 C7.1796875 11.5703125 7.1796875 11.5703125 7.0546875 14.1953125 C5.0546875 16.1953125 5.0546875 16.1953125 2.671875 16.390625 C1.76695313 16.36742188 0.86203125 16.34421875 -0.0703125 16.3203125 C-1.43542969 16.29324219 -1.43542969 16.29324219 -2.828125 16.265625 C-3.52679688 16.24242188 -4.22546875 16.21921875 -4.9453125 16.1953125 C-4.9453125 14.8753125 -4.9453125 13.5553125 -4.9453125 12.1953125 C-4.0790625 12.6903125 -4.0790625 12.6903125 -3.1953125 13.1953125 C-0.74647388 14.46607148 -0.74647388 14.46607148 3.0546875 14.1953125 C3.0546875 13.2053125 3.0546875 12.2153125 3.0546875 11.1953125 C-0.4103125 9.2153125 -0.4103125 9.2153125 -3.9453125 7.1953125 C-4.0703125 4.8203125 -4.0703125 4.8203125 -3.9453125 2.1953125 C-1.9453125 0.1953125 -1.9453125 0.1953125 0 0 Z " fill="#7F7E7C" transform="translate(77.9453125,79.8046875)"/>
<path d="M0 0 C0.66 0 1.32 0 2 0 C2 0.66 2 1.32 2 2 C3.32 2 4.64 2 6 2 C6 2.66 6 3.32 6 4 C5.34 4 4.68 4 4 4 C4.66 5.65 5.32 7.3 6 9 C5.34 9 4.68 9 4 9 C4 10.32 4 11.64 4 13 C2.0085944 13.38133299 0.00720923 13.71325582 -2 14 C-2.33 13.67 -2.66 13.34 -3 13 C-3.33 13.66 -3.66 14.32 -4 15 C-4.66 15 -5.32 15 -6 15 C-5.47731534 12.23723823 -4.89130413 9.6739124 -4 7 C-3.34 6.67 -2.68 6.34 -2 6 C-1.27306096 4.02111039 -0.60183749 2.02045442 0 0 Z " fill="#B2B3B3" transform="translate(42,17)"/>
<path d="M0 0 C0.60328125 0.08378906 1.2065625 0.16757812 1.828125 0.25390625 C3.02695313 0.40666016 3.02695313 0.40666016 4.25 0.5625 C5.03890625 0.66691406 5.8278125 0.77132812 6.640625 0.87890625 C9.00532874 1.00027349 10.7511037 0.69633257 13 0 C13 0.99 13 1.98 13 3 C15.97 3 18.94 3 22 3 C22 3.66 22 4.32 22 5 C14.38600077 7.19386419 7.83703499 6.89635331 0 6 C1.32 5.01 2.64 4.02 4 3 C2.68 2.34 1.36 1.68 0 1 C0 0.67 0 0.34 0 0 Z " fill="#737372" transform="translate(70,58)"/>
<path d="M0 0 C1.12183498 3.36550494 1.67889311 6.46782421 2 10 C1.34 10.66 0.68 11.32 0 12 C0 11.34 0 10.68 0 10 C-0.66 10 -1.32 10 -2 10 C-2 10.66 -2 11.32 -2 12 C-3.65 12 -5.3 12 -7 12 C-7 11.01 -7 10.02 -7 9 C-6.34 9 -5.68 9 -5 9 C-5.226875 8.236875 -5.45375 7.47375 -5.6875 6.6875 C-6 4 -6 4 -4.75 2.25 C-3 1 -3 1 0 0 Z " fill="#ECEDEE" transform="translate(54,28)"/>
<path d="M0 0 C1.7074998 1.28062485 3.37373596 2.61767557 5 4 C5 4.66 5 5.32 5 6 C5.804375 6.28875 6.60875 6.5775 7.4375 6.875 C10 8 10 8 11 10 C12.64363134 10.72159424 14.31050386 11.39351421 16 12 C11.91113345 13.36295552 9.25441935 12.67530466 5 12 C3 11 3 11 2.1484375 8.49609375 C1.89320312 7.48675781 1.63796875 6.47742187 1.375 5.4375 C1.11460938 4.42558594 0.85421875 3.41367187 0.5859375 2.37109375 C0.39257812 1.58863281 0.19921875 0.80617187 0 0 Z " fill="#C1C3C3" transform="translate(60,49)"/>
<path d="M0 0 C0.99 0.33 1.98 0.66 3 1 C3.73828125 2.78515625 3.73828125 2.78515625 4.3125 5.0625 C5.8797959 10.27023452 8.58492501 13.84677079 12 18 C13.00557777 19.32913172 14.00710624 20.66136645 15 22 C11.20682075 21.45930559 9.81099066 20.05103111 7.5 17.0625 C3.95459339 12.30479306 0 6.13961221 0 0 Z " fill="#ACABA7" transform="translate(38,37)"/>
<path d="M0 0 C3.04105741 0.43443677 5.80188097 0.92628129 8.6875 2 C12.67717916 3.20443144 16.46142968 3.42958632 20.609375 3.65625 C23 4 23 4 25 6 C17.33711149 6.40018954 7.29416297 6.8036659 1.1875 1.39453125 C0.795625 0.93433594 0.40375 0.47414062 0 0 Z " fill="#B0AEA8" transform="translate(53,60)"/>
<path d="M0 0 C0.66 0 1.32 0 2 0 C2 0.66 2 1.32 2 2 C3.32 2 4.64 2 6 2 C6 2.66 6 3.32 6 4 C5.34 4 4.68 4 4 4 C4 5.32 4 6.64 4 8 C1.36 8.33 -1.28 8.66 -4 9 C-4 8.34 -4 7.68 -4 7 C-3.34 6.67 -2.68 6.34 -2 6 C-1.27306096 4.02111039 -0.60183749 2.02045442 0 0 Z " fill="#9F9E9D" transform="translate(42,17)"/>
<path d="M0 0 C3.21377263 2.49960094 6.17055552 5.07298847 9 8 C9.66 8.66 10.32 9.32 11 10 C7.8125 10.5 7.8125 10.5 4 10 C1.76008265 7.62449444 0.17467088 5.0468026 -1 2 C-0.67 1.34 -0.34 0.68 0 0 Z " fill="#7C7B7A" transform="translate(98,86)"/>
<path d="M0 0 C4.95 0 9.9 0 15 0 C15 1.98 15 3.96 15 6 C14.63261719 5.52949219 14.26523437 5.05898437 13.88671875 4.57421875 C11.30595609 2.4209116 9.11577474 2.27424808 5.8125 1.8125 C4.18248047 1.57466797 4.18248047 1.57466797 2.51953125 1.33203125 C1.27236328 1.16767578 1.27236328 1.16767578 0 1 C0 0.67 0 0.34 0 0 Z " fill="#939290" transform="translate(22,69)"/>
<path d="M0 0 C2.64 0 5.28 0 8 0 C8.33 1.32 8.66 2.64 9 4 C6.36 3.34 3.72 2.68 1 2 C0.67 2.66 0.34 3.32 0 4 C-0.66 4 -1.32 4 -2 4 C-1.34 2.68 -0.68 1.36 0 0 Z " fill="#8F8E8A" transform="translate(76,80)"/>
<path d="M0 0 C0.99 0.33 1.98 0.66 3 1 C3 2.32 3 3.64 3 5 C3.66 5.66 4.32 6.32 5 7 C3.02 7 1.04 7 -1 7 C-1.625 4.625 -1.625 4.625 -2 2 C-1.34 1.34 -0.68 0.68 0 0 Z " fill="#7A7A79" transform="translate(56,89)"/>
<path d="M0 0 C0.66 0.33 1.32 0.66 2 1 C1.67 1.66 1.34 2.32 1 3 C1 4.32 1 5.64 1 7 C0.34 6.67 -0.32 6.34 -1 6 C-1.33 6.33 -1.66 6.66 -2 7 C-2.99 7 -3.98 7 -5 7 C-5 6.34 -5 5.68 -5 5 C-4.34 5 -3.68 5 -3 5 C-3 3.68 -3 2.36 -3 1 C-2.01 0.67 -1.02 0.34 0 0 Z " fill="#DDDEDF" transform="translate(48,30)"/>
<path d="M0 0 C0 1.65 0 3.3 0 5 C-1.65 5 -3.3 5 -5 5 C-5 3.68 -5 2.36 -5 1 C-3 0 -3 0 0 0 Z " fill="#F1E8CF" transform="translate(63,89)"/>
<path d="M0 0 C0.66 0.33 1.32 0.66 2 1 C1.67 1.99 1.34 2.98 1 4 C2.32 4.33 3.64 4.66 5 5 C1.25 8 1.25 8 -1 8 C-1.66 6.35 -2.32 4.7 -3 3 C-2.01 2.67 -1.02 2.34 0 2 C0 1.34 0 0.68 0 0 Z " fill="#B7B8B9" transform="translate(46,35)"/>
<path d="M0 0 C0.60328125 0.08378906 1.2065625 0.16757812 1.828125 0.25390625 C3.02695313 0.40666016 3.02695313 0.40666016 4.25 0.5625 C5.03890625 0.66691406 5.8278125 0.77132812 6.640625 0.87890625 C9.00532874 1.00027349 10.7511037 0.69633257 13 0 C12.67 0.99 12.34 1.98 12 3 C8.10885099 4.01911045 6.39403493 4.16782969 2.625 2.5625 C1.75875 2.046875 0.8925 1.53125 0 1 C0 0.67 0 0.34 0 0 Z " fill="#8B8984" transform="translate(70,58)"/>
<path d="M0 0 C-1.32 0.33 -2.64 0.66 -4 1 C-4 2.32 -4 3.64 -4 5 C-5.32 4.67 -6.64 4.34 -8 4 C-7.67 2.68 -7.34 1.36 -7 0 C-3.98968256 -0.93423645 -3.13349732 -1.04449911 0 0 Z " fill="#939494" transform="translate(49,30)"/>
<path d="M0 0 C1.32 0 2.64 0 4 0 C4 0.66 4 1.32 4 2 C5.32 2.33 6.64 2.66 8 3 C8 3.33 8 3.66 8 4 C5.69 4 3.38 4 1 4 C0.67 2.68 0.34 1.36 0 0 Z " fill="#A2A1A0" transform="translate(48,21)"/>
<path d="M0 0 C1.32 0.66 2.64 1.32 4 2 C3.01 2 2.02 2 1 2 C0.67 2.99 0.34 3.98 0 5 C-0.99 5 -1.98 5 -3 5 C-3 4.01 -3 3.02 -3 2 C-2.01 1.34 -1.02 0.68 0 0 Z " fill="#95938E" transform="translate(58,80)"/>
</svg>
