<?xml version="1.0" encoding="UTF-8"?>
<svg version="1.1" xmlns="http://www.w3.org/2000/svg" width="250" height="250">
<path d="M0 0 C82.5 0 165 0 250 0 C250 82.5 250 165 250 250 C167.5 250 85 250 0 250 C0 167.5 0 85 0 0 Z " fill="#F6DF1D" transform="translate(0,0)"/>
<path d="M0 0 C6.47718458 3.24322547 11.20065818 8.01973726 15.1875 14 C14.9942277 16.60839039 14.59191262 17.64931354 12.60522461 19.37207031 C11.94014893 19.77006836 11.27507324 20.16806641 10.58984375 20.578125 C9.87119141 21.01640625 9.15253906 21.4546875 8.41210938 21.90625 C7.65736328 22.3496875 6.90261719 22.793125 6.125 23.25 C5.36638672 23.70890625 4.60777344 24.1678125 3.82617188 24.640625 C1.9529589 25.77162151 0.07361807 26.89070522 -1.8125 28 C-4.2350621 25.58544637 -6.64942258 23.17239613 -9 20.6875 C-13.17936843 18.17987894 -17.0578242 18.20365036 -21.8125 19 C-24.74673195 20.79646854 -26.28455355 21.9441071 -27.8125 25 C-27.90351074 27.0799815 -27.90351074 27.0799815 -27.6875 29.375 C-27.64367187 30.14585937 -27.59984375 30.91671875 -27.5546875 31.7109375 C-26.22705044 35.8056497 -22.57749477 37.59518062 -18.90917969 39.53637695 C-17.86149414 40.01550537 -16.81380859 40.49463379 -15.734375 40.98828125 C-14.57292969 41.53033203 -13.41148437 42.07238281 -12.21484375 42.63085938 C-9.79834157 43.74644224 -7.37813325 44.85335654 -4.95703125 45.95898438 C7.06340197 51.58401583 17.33134199 58.12863699 22.1875 71 C22.70266405 74.19009332 22.70522996 77.27527338 22.625 80.5 C22.63208984 81.30308594 22.63917969 82.10617188 22.64648438 82.93359375 C22.55032362 92.06146861 19.72627088 98.31482148 13.5 104.953125 C2.53300659 114.66039619 -11.40967697 114.76417977 -25.24169922 114.19091797 C-37.65578965 113.26899786 -47.50915361 106.17839654 -55.4375 96.9921875 C-56.97789625 94.76036339 -57.89665142 92.5450023 -58.8125 90 C-56.04799979 88.32265277 -53.27493144 86.66002366 -50.5 85 C-49.71431641 84.52304688 -48.92863281 84.04609375 -48.11914062 83.5546875 C-47.36181641 83.10351562 -46.60449219 82.65234375 -45.82421875 82.1875 C-45.12772217 81.76855469 -44.43122559 81.34960938 -43.71362305 80.91796875 C-41.8125 80 -41.8125 80 -38.8125 80 C-37.234375 81.609375 -37.234375 81.609375 -35.5625 83.75 C-31.15663038 88.88411253 -28.07194798 91.68940638 -21.24609375 92.33984375 C-14.57274382 92.50292659 -9.64932748 92.52297337 -3.8125 89 C-1.18251522 85.65274664 -1.37907002 82.1175848 -1.8125 78 C-4.60214726 73.70207455 -7.46790687 71.84054771 -12.0625 69.6875 C-13.31124228 69.08733187 -14.55993833 68.48706756 -15.80859375 67.88671875 C-17.14297801 67.25727977 -18.47761995 66.62838683 -19.8125 66 C-45.38424647 53.87437346 -45.38424647 53.87437346 -50.5625 41 C-53.23109153 32.25704543 -53.04222142 22.54995765 -49.12890625 14.24609375 C-39.35456582 -2.43119334 -17.53144136 -6.71512793 0 0 Z " fill="#050300" transform="translate(207.8125,116)"/>
<path d="M0 0 C7.59 0 15.18 0 23 0 C23.09061907 11.41416851 23.16389907 22.82809537 23.20724869 34.24254322 C23.2280616 39.54358676 23.25626361 44.84436994 23.30175781 50.14526367 C23.34544085 55.26758547 23.36918438 60.38965792 23.37950897 65.51215172 C23.38686019 67.45965178 23.4012148 69.40713927 23.42292023 71.35453224 C23.56191505 84.35006599 23.30440626 95.72537625 14.6953125 106.28125 C7.93461759 113.13541074 -0.46892629 115.1883306 -9.85009766 115.43164062 C-22.57097373 115.46269872 -31.73340727 113.05214455 -41.15234375 103.9921875 C-47 97.68710359 -47 97.68710359 -47 93 C-45.48706055 91.74145508 -45.48706055 91.74145508 -43.38671875 90.51953125 C-42.63326172 90.07802734 -41.87980469 89.63652344 -41.10351562 89.18164062 C-40.30623047 88.72982422 -39.50894531 88.27800781 -38.6875 87.8125 C-37.90181641 87.34908203 -37.11613281 86.88566406 -36.30664062 86.40820312 C-30.4087928 83 -30.4087928 83 -27 83 C-25.6459068 84.98600337 -24.31542376 86.98817543 -23 89 C-20.60613785 91.75656854 -19.01129991 92.86606296 -15.375 93.34765625 C-9.90988529 93.5611539 -9.90988529 93.5611539 -4.78515625 91.91015625 C-0.48107497 87.3046951 -0.69830276 80.54816862 -0.68115234 74.58618164 C-0.66608391 73.37032883 -0.66608391 73.37032883 -0.65071106 72.12991333 C-0.62002962 69.47333429 -0.60288609 66.81685533 -0.5859375 64.16015625 C-0.56721373 62.30927173 -0.54763942 60.45839563 -0.5272522 58.60752869 C-0.47605271 53.75297019 -0.43636195 48.89838405 -0.39910889 44.04370117 C-0.35899266 39.08310172 -0.30793515 34.12261603 -0.2578125 29.16210938 C-0.16119747 19.44147845 -0.07775881 9.72080007 0 0 Z " fill="#030200" transform="translate(113,115)"/>
<path d="M0 0 C7.92 0.33 15.84 0.66 24 1 C24 1.66 24 2.32 24 3 C16.41 3 8.82 3 1 3 C1.01047363 5.49336914 1.02094727 7.98673828 1.03173828 10.55566406 C1.06486434 18.78986536 1.08696423 27.02406959 1.10362434 35.25831985 C1.11406559 40.25118787 1.12823107 45.24398766 1.15087891 50.23681641 C1.17259505 55.05434592 1.18456606 59.87180978 1.18975449 64.68938446 C1.19345244 66.52820621 1.20067354 68.36702434 1.21146011 70.20581818 C1.22595867 72.77954399 1.22797863 75.35299779 1.22705078 77.92675781 C1.23424133 78.68848801 1.24143188 79.4502182 1.24884033 80.23503113 C1.2342106 83.98048242 1.09488338 86.82216898 -1 90 C-1.02313425 78.56077057 -1.04092063 67.12154668 -1.05181217 55.68229866 C-1.05703862 50.37103578 -1.06413198 45.05978885 -1.07543945 39.74853516 C-1.08627675 34.62627886 -1.09227864 29.50403796 -1.09487724 24.38177109 C-1.09672996 22.4240787 -1.10034767 20.46638719 -1.10573006 18.50870132 C-1.11295164 15.77417405 -1.11399046 13.039711 -1.11352539 10.30517578 C-1.11712067 9.48950134 -1.12071594 8.6738269 -1.12442017 7.83343506 C-1.11405216 2.22810432 -1.11405216 2.22810432 0 0 Z " fill="#C8B939" transform="translate(112,112)"/>
<path d="M0 0 C0.33 0 0.66 0 1 0 C1.04628837 12.07386559 1.08185139 24.14771015 1.10362434 36.22164631 C1.11407291 41.82772767 1.12825169 47.43374844 1.15087891 53.03979492 C1.17256901 58.44734991 1.18456054 63.85484652 1.18975449 69.26244164 C1.19345714 71.32816678 1.20068724 73.39388863 1.21146011 75.459589 C1.22592406 78.34723505 1.22798008 81.23463816 1.22705078 84.12231445 C1.23424133 84.98114731 1.24143188 85.83998016 1.24884033 86.72483826 C1.22810432 92.65784352 1.22810432 92.65784352 -1 96 C-1.66 95.67 -2.32 95.34 -3 95 C-2.67657623 94.02800156 -2.35315247 93.05600311 -2.01992798 92.05455017 C-0.79018891 87.72469616 -0.69327936 83.60537245 -0.68115234 79.12719727 C-0.66608391 77.83819267 -0.66608391 77.83819267 -0.65071106 76.52314758 C-0.62000781 73.70424014 -0.60287986 70.8854271 -0.5859375 68.06640625 C-0.5672155 66.10342097 -0.54764132 64.14044365 -0.5272522 62.17747498 C-0.47603407 57.02699487 -0.43635319 51.8764887 -0.39910889 46.72589111 C-0.35900444 41.46368009 -0.30794152 36.20157651 -0.2578125 30.93945312 C-0.16117544 20.62637768 -0.07673166 10.31324142 0 0 Z " fill="#CEBB34" transform="translate(136,116)"/>
<path d="M0 0 C0.82757813 0.3609375 1.65515625 0.721875 2.5078125 1.09375 C16.66667279 6.59827452 33.65938558 7.76369192 48 2 C47 5 47 5 45.2265625 6.14453125 C32.88416779 10.88660922 15.54157707 8.0119358 3.30859375 4.1328125 C2.54675781 3.75898438 1.78492188 3.38515625 1 3 C0.67 2.01 0.34 1.02 0 0 Z " fill="#D8C63A" transform="translate(165,224)"/>
<path d="M0 0 C0.53729736 0.21366211 1.07459473 0.42732422 1.62817383 0.64746094 C7.47244219 2.80561584 12.48946108 3.40905152 18.6875 3.25 C19.91049805 3.24226562 19.91049805 3.24226562 21.15820312 3.234375 C25.53669161 3.17774136 29.69155785 2.8630805 34 2 C33.67 2.99 33.34 3.98 33 5 C28.78341569 5.24192581 24.56657686 5.45688107 20.34741211 5.64697266 C18.91246969 5.7154191 17.47785823 5.79121596 16.04370117 5.87451172 C13.98138745 5.99301088 11.91932588 6.08498369 9.85546875 6.171875 C8.61434326 6.2347168 7.37321777 6.29755859 6.09448242 6.36230469 C3 6 3 6 1.0715332 4.11425781 C0 2 0 2 0 0 Z " fill="#E5D439" transform="translate(82,226)"/>
<path d="M0 0 C1.32 0.33 2.64 0.66 4 1 C1.69 2.32 -0.62 3.64 -3 5 C-1.80100302 8.0831351 -0.52299523 11.06279492 1 14 C-1 14 -1 14 -3.0625 12.4375 C-5.54464988 9.31479531 -5.77737544 6.93303396 -6 3 C-5 2 -5 2 -2.4375 1.9375 C-1.2309375 1.9684375 -1.2309375 1.9684375 0 2 C0 1.34 0 0.68 0 0 Z " fill="#E3D437" transform="translate(153,201)"/>
<path d="M0 0 C0.66 0 1.32 0 2 0 C1.63965451 2.61250478 1.23899378 3.77309326 -0.69921875 5.61328125 C-3.51387137 7.30971874 -5.29547494 7.40166959 -8.5625 7.375 C-9.51253906 7.38273438 -10.46257812 7.39046875 -11.44140625 7.3984375 C-14.34090496 6.94691251 -15.2179046 6.26812142 -17 4 C-15.75283203 4.10828125 -15.75283203 4.10828125 -14.48046875 4.21875 C-13.39378906 4.3115625 -12.30710937 4.404375 -11.1875 4.5 C-10.10855469 4.5928125 -9.02960938 4.685625 -7.91796875 4.78125 C-4.98909189 5.03737838 -4.98909189 5.03737838 -2 5 C-1.855625 4.360625 -1.71125 3.72125 -1.5625 3.0625 C-1 1 -1 1 0 0 Z " fill="#DFD145" transform="translate(109,202)"/>
<path d="M0 0 C1.98 0.66 3.96 1.32 6 2 C3.35245205 3.76503197 0.69636962 5.49825653 -2 7.1875 C-2.86625 7.73792969 -3.7325 8.28835937 -4.625 8.85546875 C-7 10 -7 10 -10 9 C-9.01 8.67 -8.02 8.34 -7 8 C-7 7.34 -7 6.68 -7 6 C-5.68 6 -4.36 6 -3 6 C-3 5.34 -3 4.68 -3 4 C-2.01 4 -1.02 4 0 4 C0 2.68 0 1.36 0 0 Z " fill="#E3D337" transform="translate(80,195)"/>
<path d="M0 0 C0.66 0.66 1.32 1.32 2 2 C-1.19005772 6.6521675 -5.02593827 9.46990366 -10 12 C-10.66 12 -11.32 12 -12 12 C-12 11.34 -12 10.68 -12 10 C-11.34 10 -10.68 10 -10 10 C-10 9.34 -10 8.68 -10 8 C-9.40703125 7.90847656 -8.8140625 7.81695312 -8.203125 7.72265625 C-5.47465343 6.82767887 -4.52874959 5.66093699 -2.75 3.4375 C-1.96882813 2.47650391 -1.96882813 2.47650391 -1.171875 1.49609375 C-0.78515625 1.00238281 -0.3984375 0.50867188 0 0 Z " fill="#201301" transform="translate(128,216)"/>
<path d="M0 0 C8.415 3.465 8.415 3.465 17 7 C16.01 7.66 15.02 8.32 14 9 C14 8.34 14 7.68 14 7 C12.02 7 10.04 7 8 7 C8 6.34 8 5.68 8 5 C6.865625 4.731875 5.73125 4.46375 4.5625 4.1875 C3.386875 3.795625 2.21125 3.40375 1 3 C0.67 2.01 0.34 1.02 0 0 Z " fill="#E0CF3C" transform="translate(180,178)"/>
<path d="M0 0 C1 3 1 3 0.0625 5.1875 C-0.288125 5.785625 -0.63875 6.38375 -1 7 C-1.66 7 -2.32 7 -3 7 C-3.268125 7.598125 -3.53625 8.19625 -3.8125 8.8125 C-5.02493496 11.04593283 -5.94652273 12.49938199 -8 14 C-10.1015625 13.57421875 -10.1015625 13.57421875 -12 13 C-10.948125 12.34 -9.89625 11.68 -8.8125 11 C-4.63992251 8.05714555 -2.39144289 4.44125109 0 0 Z " fill="#D4C63B" transform="translate(132,213)"/>
<path d="M0 0 C3.34155992 2.75678693 4.87593546 4.13154822 5.5 8.5 C4.98621502 12.09649489 4.11786964 14.08792925 2 17 C1.375 15.125 1.375 15.125 1 13 C1.66 12.34 2.32 11.68 3 11 C2.69690596 6.90823045 2.12300942 3.53834904 0 0 Z " fill="#D8CA43" transform="translate(202,189)"/>
<path d="M0 0 C-0.33 0.99 -0.66 1.98 -1 3 C-7.27 3 -13.54 3 -20 3 C-20 2.67 -20 2.34 -20 2 C-19.03578125 1.93941406 -18.0715625 1.87882813 -17.078125 1.81640625 C-15.81484375 1.73261719 -14.5515625 1.64882812 -13.25 1.5625 C-11.99703125 1.48128906 -10.7440625 1.40007812 -9.453125 1.31640625 C-6.25794727 1.02363544 -3.17641562 0 0 0 Z " fill="#C6BA30" transform="translate(116,228)"/>
<path d="M0 0 C0.33 0 0.66 0 1 0 C1.05402274 2.10388569 1.09280256 4.20816714 1.125 6.3125 C1.14820313 7.48425781 1.17140625 8.65601563 1.1953125 9.86328125 C1 13 1 13 -1 16 C-1.66 15.67 -2.32 15.34 -3 15 C-2.690625 14.01 -2.38125 13.02 -2.0625 12 C-0.91566793 8.02268878 -0.43287644 4.11232621 0 0 Z " fill="#E3D340" transform="translate(136,196)"/>
<path d="M0 0 C1.65 1.32 3.3 2.64 5 4 C6.32 3.34 7.64 2.68 9 2 C8.67 2.99 8.34 3.98 8 5 C5.08517222 5.80967438 3.53886783 6.21845993 0.6875 5.0625 C0.130625 4.711875 -0.42625 4.36125 -1 4 C-0.67 2.68 -0.34 1.36 0 0 Z " fill="#DFD136" transform="translate(201,139)"/>
<path d="M0 0 C1.32 0 2.64 0 4 0 C4 0.99 4 1.98 4 3 C5.32 3.33 6.64 3.66 8 4 C7.34 5.32 6.68 6.64 6 8 C4.02 5.36 2.04 2.72 0 0 Z " fill="#E2D136" transform="translate(216,122)"/>
<path d="M0 0 C0.66 2.31 1.32 4.62 2 7 C-0.97 5.35 -3.94 3.7 -7 2 C-7 1.67 -7 1.34 -7 1 C-2.25 0 -2.25 0 0 0 Z " fill="#E1D13B" transform="translate(214,115)"/>
<path d="M0 0 C0 3 0 3 -1 5 C-3.375 6.1875 -3.375 6.1875 -6 7 C-6.99 6.67 -7.98 6.34 -9 6 C-6.03 4.02 -3.06 2.04 0 0 Z " fill="#E0CC41" transform="translate(220,134)"/>
<path d="M0 0 C0.98120464 3.05263664 0.98120464 4.94736336 0 8 C-1.32 7.67 -2.64 7.34 -4 7 C-2.68 4.69 -1.36 2.38 0 0 Z " fill="#E0D239" transform="translate(229,208)"/>
<path d="M0 0 C0 0.66 0 1.32 0 2 C-1.175625 2.433125 -1.175625 2.433125 -2.375 2.875 C-5.09671632 3.84912254 -5.09671632 3.84912254 -7 6 C-7.33 5.01 -7.66 4.02 -8 3 C-3.375 0 -3.375 0 0 0 Z " fill="#1A1601" transform="translate(86,198)"/>
<path d="M0 0 C-0.639375 0.309375 -1.27875 0.61875 -1.9375 0.9375 C-3.93610821 1.8345163 -3.93610821 1.8345163 -5 3 C-6.66617115 3.04063832 -8.33388095 3.042721 -10 3 C-7.29536552 -0.8183075 -4.37912428 -0.24787496 0 0 Z " fill="#E0CC3C" transform="translate(193,134)"/>
</svg>
