<?xml version="1.0" encoding="UTF-8"?>
<svg version="1.1" xmlns="http://www.w3.org/2000/svg" width="512" height="512">
<path d="M0 0 C10.7642325 8.27128908 19.75086904 19.08312294 24.171875 32.08203125 C24.41238403 35.0370636 24.41238403 35.0370636 24.39892578 38.34106445 C24.39877472 39.58197342 24.39862366 40.82288239 24.39846802 42.10139465 C24.38825643 43.44520226 24.37782446 44.7890082 24.3671875 46.1328125 C24.36345431 47.51571955 24.36060878 48.89862927 24.35861206 50.28153992 C24.35099962 53.90983465 24.33137191 57.53796762 24.3092041 61.16619873 C24.28869399 64.87314669 24.27959933 68.58012095 24.26953125 72.28710938 C24.24812355 79.55215684 24.21401675 86.81707132 24.171875 94.08203125 C28.33607374 94.16195022 32.49519158 94.18231281 36.65966797 94.14916992 C38.07378709 94.14610067 39.48803768 94.15888037 40.90185547 94.18823242 C49.23322492 94.54365526 49.23322492 94.54365526 56.54199219 91.18310547 C58.30420033 88.76445724 59.47702804 86.9976232 60.171875 84.08203125 C59.32134492 81.2171297 58.16464717 79.07017761 56.609375 76.51953125 C52.84941543 70.14394764 53.52487284 62.2354035 54.171875 55.08203125 C56.07935249 48.94011204 59.26359365 44.2540704 64.171875 40.08203125 C65.2546875 39.03015625 65.2546875 39.03015625 66.359375 37.95703125 C72.73984674 33.70338343 80.58150269 31.98325855 88.171875 33.08203125 C97.07227584 35.13596991 104.50653384 39.47740987 109.58203125 47.23828125 C113.59248838 54.94295876 114.54665607 63.30132529 112.5234375 71.80859375 C109.12600587 81.18782807 103.55924788 86.95060154 94.6015625 91.171875 C90.98619304 92.52618542 88.2617287 93.26547197 84.41015625 92.6171875 C80.82575907 92.03813268 78.65337398 91.95324711 75.171875 93.08203125 C71.29279568 97.14749276 68.79656339 102.37406585 66.35351562 107.38623047 C64.77509703 109.65145683 63.81815213 110.21899754 61.171875 111.08203125 C58.30908569 111.25083635 55.54751546 111.3147766 52.6875 111.27734375 C51.87190613 111.27451385 51.05631226 111.27168396 50.21600342 111.26876831 C47.61780972 111.25759683 45.01996405 111.232498 42.421875 111.20703125 C40.65755707 111.19699752 38.89323372 111.18787236 37.12890625 111.1796875 C32.80965473 111.15937117 28.49115324 111.1202174 24.171875 111.08203125 C24.171875 122.96203125 24.171875 134.84203125 24.171875 147.08203125 C36.59525255 147.29090663 49.01489093 147.43510465 61.4400053 147.4680624 C67.2107617 147.48590074 72.97849202 147.53115765 78.74829102 147.64086914 C84.32547411 147.74587962 89.89872664 147.77652212 95.47681618 147.7573719 C97.59590433 147.76282568 99.71510275 147.79429734 101.83337975 147.85317802 C114.47694234 148.45295272 114.47694234 148.45295272 125.25283813 142.8117981 C128.11437497 139.7128608 130.50807822 136.37837023 132.85042763 132.87825203 C134.87889493 130.12099116 137.32004783 128.11053125 139.921875 125.89453125 C147.73221123 116.80774849 145.48895776 102.36277107 145.171875 91.08203125 C144.00495117 90.87054443 144.00495117 90.87054443 142.81445312 90.65478516 C137.10962764 89.41831799 131.90412364 85.4309197 128.296875 80.89453125 C123.30596918 73.00959324 122.19854242 64.09536113 124.171875 55.08203125 C127.48647659 45.01314718 132.91043615 39.96786544 142.171875 35.08203125 C149.58258615 32.6117942 159.63652047 32.80372009 166.734375 36.14453125 C173.29317725 40.0798126 178.66470333 45.08175622 181.5078125 52.30078125 C183.64274008 61.24236028 183.50832777 70.94120372 178.7265625 78.96484375 C174.73206673 84.40458422 170.57630894 88.60759086 164.171875 91.08203125 C163.181875 91.08203125 162.191875 91.08203125 161.171875 91.08203125 C161.21900635 92.56413086 161.21900635 92.56413086 161.26708984 94.07617188 C161.37642458 97.77342586 161.44483348 101.47053983 161.50146484 105.16894531 C161.53147336 106.7635915 161.57229547 108.35807491 161.62451172 109.95214844 C162.10162488 124.90169423 162.10162488 124.90169423 158.54296875 129.71875 C157.44948202 130.86933028 156.3255049 131.99176236 155.171875 133.08203125 C154.12433436 134.29894061 153.08655727 135.52432121 152.05859375 136.7578125 C150.99453759 137.97211542 149.92808149 139.18431906 148.859375 140.39453125 C144.14362979 145.77807617 139.54663781 151.22412225 135.07421875 156.8125 C134.44644531 157.56144531 133.81867188 158.31039062 133.171875 159.08203125 C132.68080261 159.77947449 132.18973022 160.47691772 131.68377686 161.19549561 C127.74625218 164.15272924 123.87470878 163.60741957 119.07910156 163.53613281 C118.05439255 163.53671692 117.02968353 163.53730103 115.97392273 163.53790283 C112.5864374 163.53511581 109.19983164 163.50399349 105.8125 163.47265625 C103.46409587 163.46519609 101.11568552 163.4595021 98.76727295 163.45550537 C92.58574237 163.44023149 86.40458763 163.400934 80.22320557 163.35668945 C73.91578252 163.31577491 67.60829875 163.29750248 61.30078125 163.27734375 C48.92428746 163.23444181 36.54817128 163.16407707 24.171875 163.08203125 C24.171875 172.65203125 24.171875 182.22203125 24.171875 192.08203125 C58.491875 192.08203125 92.811875 192.08203125 128.171875 192.08203125 C128.831875 190.76203125 129.491875 189.44203125 130.171875 188.08203125 C131.82657554 186.17841849 133.49626096 184.34289339 135.234375 182.51953125 C138.86174492 178.64527228 142.34734073 174.7241725 145.671875 170.58203125 C149.35352006 166.00966562 153.21811698 161.66751837 157.21337891 157.37133789 C160.43654967 153.90474762 163.53460422 150.36038442 166.5390625 146.703125 C169.67614441 143.58855803 172.22938062 142.17360885 176.67700195 141.74145508 C178.64866333 141.76502075 178.64866333 141.76502075 180.66015625 141.7890625 C181.36335495 141.79330734 182.06655365 141.79755219 182.7910614 141.80192566 C185.02256631 141.81863065 187.25314613 141.85626511 189.484375 141.89453125 C191.0032421 141.90958877 192.52212346 141.92327531 194.04101562 141.93554688 C197.75159934 141.96850652 201.46164678 142.02023109 205.171875 142.08203125 C205.30464844 141.31632813 205.43742187 140.550625 205.57421875 139.76171875 C207.11768204 132.84135394 212.65205792 128.10753321 218.171875 124.08203125 C225.22086895 119.83168246 233.7947908 120.23170166 241.69140625 121.48046875 C249.73217465 123.64908229 255.9788235 129.4948744 260.234375 136.51953125 C263.69367469 144.31802219 263.63160587 154.02763274 261.28515625 162.15234375 C257.93216403 169.43758265 252.89662128 175.09094161 245.609375 178.51953125 C236.82775779 181.60713182 226.88496023 181.4258079 218.421875 177.47265625 C211.33716046 173.09390907 207.6178447 167.46014273 204.171875 160.08203125 C188.58454372 157.96041849 188.58454372 157.96041849 174.3125 162.3671875 C171.41899608 165.2650881 169.33010484 168.61676128 167.171875 172.08203125 C165.6974331 173.93598168 164.19793416 175.7703319 162.671875 177.58203125 C161.5890625 178.9278125 161.5890625 178.9278125 160.484375 180.30078125 C157.53679453 183.84584425 154.41871914 187.20875468 151.27539062 190.57958984 C147.31289784 194.85645529 143.65755221 199.3226245 140.046875 203.90234375 C137.9582838 206.33033103 136.33847509 207.94549295 133.06920338 208.32812691 C132.25341659 208.32628332 131.4376298 208.32443974 130.59712219 208.32254028 C129.18997955 208.32666428 129.18997955 208.32666428 127.75440979 208.33087158 C126.72726364 208.32368103 125.70011749 208.31649048 124.6418457 208.30908203 C123.55876129 208.30937408 122.47567688 208.30966614 121.35977173 208.30996704 C117.772319 208.30857137 114.1850728 208.29299884 110.59765625 208.27734375 C108.11329766 208.27361447 105.62893761 208.2707671 103.14457703 208.26876831 C97.269132 208.26190681 91.39376348 208.24613667 85.51834983 208.22606933 C76.99966754 208.19760525 68.48096 208.18711927 59.96224213 208.17445374 C48.03205816 208.1550469 36.10206846 208.11672886 24.171875 208.08203125 C24.171875 225.90203125 24.171875 243.72203125 24.171875 262.08203125 C32.0196875 262.00082031 39.8675 261.91960937 47.953125 261.8359375 C52.9297281 261.80016368 57.90617231 261.76646597 62.8828125 261.74023438 C70.77930694 261.69841494 78.67523233 261.64898367 86.57128906 261.55395508 C92.93853483 261.4778066 99.30517027 261.43602137 105.6728363 261.41789055 C108.1001496 261.40497265 110.5274301 261.37974638 112.95448303 261.34192085 C116.35905704 261.29097875 119.76112082 261.28411307 123.16601562 261.28735352 C124.16583466 261.26218658 125.16565369 261.23701965 126.19577026 261.21109009 C132.69555173 261.27787226 135.95760642 262.73203214 140.5711441 267.33610439 C141.0993853 267.91226026 141.6276265 268.48841612 142.171875 269.08203125 C142.97496094 269.901875 143.77804687 270.72171875 144.60546875 271.56640625 C148.34519787 275.79456003 151.99804078 280.0668513 155.546875 284.45703125 C160.04819444 290.02072503 164.79655071 295.32458348 169.76245117 300.47802734 C171.171875 302.08203125 171.171875 302.08203125 172.57543945 304.18994141 C175.12864971 307.77601405 176.87957439 309.77601921 181.25976562 310.81323242 C184.8989603 311.09256548 188.46022498 311.13943791 192.109375 311.08203125 C193.99366211 311.09943359 193.99366211 311.09943359 195.91601562 311.1171875 C199.00296616 311.14066241 202.08530454 311.12786668 205.171875 311.08203125 C205.30464844 310.31632812 205.43742187 309.550625 205.57421875 308.76171875 C207.10679336 301.89017506 212.61204955 297.00661392 218.171875 293.08203125 C225.42328124 289.24702311 233.98259075 288.82402295 241.87890625 290.73828125 C249.54399432 293.46992554 255.85110836 298.00408482 259.609375 305.33203125 C263.13610219 313.23949133 263.61475023 322.68356636 261.37109375 331.078125 C258.00394605 338.49510671 251.91193537 344.65515254 244.484375 348.08203125 C236.10928605 350.63969314 226.34308168 350.17269358 218.421875 346.47265625 C211.33716046 342.09390907 207.6178447 336.46014273 204.171875 329.08203125 C203.22868408 329.06744873 202.28549316 329.05286621 201.3137207 329.0378418 C197.80028839 328.97663519 194.28762054 328.90245617 190.7746582 328.81958008 C189.25685879 328.78641209 187.73893844 328.75835493 186.22094727 328.7355957 C184.03349481 328.70189847 181.84714236 328.64957921 179.66015625 328.59375 C178.34571533 328.56756592 177.03127441 328.54138184 175.67700195 328.5144043 C170.87639438 327.92222794 168.31855382 326.34337795 165.1015625 322.8046875 C164.42351562 321.92683594 163.74546875 321.04898437 163.046875 320.14453125 C159.73052437 315.96328519 156.31105747 311.97811957 152.671875 308.08203125 C149.17766998 304.32834658 145.83123774 300.51418646 142.609375 296.51953125 C141.55996231 295.26696281 141.55996231 295.26696281 140.48934937 293.98908997 C138.171875 291.08203125 138.171875 291.08203125 136.38516235 288.19023132 C133.46348524 284.01777406 130.84327154 280.80339689 125.85475922 279.45633316 C118.7580416 278.43105201 111.59537231 278.67316054 104.4453125 278.7890625 C102.12789029 278.78713894 99.81046748 278.78036669 97.49307251 278.76896667 C91.41943463 278.75202509 85.34805015 278.8005976 79.27478027 278.86315918 C73.06731521 278.91539791 66.85998035 278.90521042 60.65234375 278.90039062 C48.49130752 278.9000918 36.33243919 278.97482703 24.171875 279.08203125 C24.171875 287.99203125 24.171875 296.90203125 24.171875 306.08203125 C27.20528076 306.07155762 30.23868652 306.06108398 33.36401367 306.05029297 C43.38236436 306.01716488 53.40071745 305.9950662 63.41910839 305.97840691 C69.49370914 305.96796629 75.5682538 305.95380189 81.64282227 305.93115234 C87.50425582 305.90943406 93.36563541 305.89746472 99.22710609 305.89227676 C101.46422488 305.8885792 103.70134068 305.88135888 105.93843651 305.87057114 C109.06994403 305.85606987 112.20122802 305.85405276 115.33276367 305.85498047 C116.25921188 305.84778992 117.1856601 305.84059937 118.1401825 305.83319092 C124.18301335 305.85258355 128.1894439 306.21073644 132.75 310.515625 C133.65032098 311.50821801 134.54052579 312.51005499 135.421875 313.51953125 C135.89931152 314.05304199 136.37674805 314.58655273 136.86865234 315.13623047 C140.6990901 319.4510497 144.34887168 323.90681091 147.96484375 328.40234375 C150.96379579 332.04354923 154.13014284 335.51817408 157.32421875 338.98828125 C161.19005515 343.36901763 161.44439694 346.42075987 161.3671875 352.03125 C161.36294266 353.19017509 161.36294266 353.19017509 161.35861206 354.37251282 C161.34742378 356.83834368 161.32232203 359.30381031 161.296875 361.76953125 C161.28684343 363.44205204 161.27771789 365.11457853 161.26953125 366.78710938 C161.24748892 370.88555684 161.21296863 374.98373231 161.171875 379.08203125 C161.93757813 379.21480469 162.70328125 379.34757812 163.4921875 379.484375 C170.41971748 381.02943635 175.10760042 386.58754359 179.171875 392.08203125 C183.49566154 399.72334128 184.24543252 407.73426326 181.921875 416.14453125 C179.15165894 424.59560514 173.91625382 430.55085466 166.3671875 435.19140625 C158.57823746 438.73487708 148.56144383 438.32630456 140.671875 435.39453125 C132.41098289 431.51421041 127.3652198 425.70343592 124.0546875 417.21875 C121.79142595 409.17716141 122.40139525 400.85689539 125.91796875 393.296875 C129.81238953 386.41794483 134.82796406 382.11751444 142.171875 379.08203125 C143.161875 379.08203125 144.151875 379.08203125 145.171875 379.08203125 C146.51867575 361.46639596 146.51867575 361.46639596 140.421875 345.83203125 C138.69845853 344.21980294 136.94489375 342.63954496 135.171875 341.08203125 C132.76999458 338.47371743 130.47656348 335.776137 128.171875 333.08203125 C127.59598633 332.43331055 127.02009766 331.78458984 126.42675781 331.11621094 C125.61996582 330.20210449 125.61996582 330.20210449 124.796875 329.26953125 C124.31476563 328.72683594 123.83265625 328.18414062 123.3359375 327.625 C122.171875 326.08203125 122.171875 326.08203125 121.171875 323.08203125 C89.161875 323.08203125 57.151875 323.08203125 24.171875 323.08203125 C24.171875 334.96203125 24.171875 346.84203125 24.171875 359.08203125 C26.85699219 359.02402344 29.54210937 358.96601563 32.30859375 358.90625 C34.91655526 358.86722784 37.52448394 358.83688428 40.13256836 358.80737305 C41.94163632 358.78226735 43.75060322 358.7481753 45.55932617 358.70483398 C48.16350251 358.64400546 50.76633531 358.61578316 53.37109375 358.59375 C54.57918953 358.55504036 54.57918953 358.55504036 55.81169128 358.51554871 C60.04924874 358.51344414 61.65887418 358.67188881 65.08203125 361.40869141 C67.43102797 364.41354118 69.5322187 367.49865078 71.484375 370.76953125 C71.84337891 371.35025391 72.20238281 371.93097656 72.57226562 372.52929688 C75.171875 376.8124628 75.171875 376.8124628 75.171875 379.08203125 C76.161875 378.75203125 77.151875 378.42203125 78.171875 378.08203125 C86.5938323 377.36409391 93.86275156 377.94580531 100.8125 383.00390625 C107.91559507 389.02699856 112.56131782 395.25580179 113.41015625 404.74609375 C113.65229673 414.40622458 111.63858831 422.33271434 104.953125 429.546875 C96.65087337 436.70210502 87.691014 437.88375265 77.13232422 437.29541016 C69.15633058 436.42728831 63.91512344 431.35924762 58.86328125 425.55859375 C53.39749146 417.55556667 53.15326622 409.40551338 54.171875 400.08203125 C55.43558501 396.4222546 57.13810121 393.35607364 59.171875 390.08203125 C59.501875 389.09203125 59.831875 388.10203125 60.171875 387.08203125 C58.96565481 384.80126245 58.96565481 384.80126245 57.234375 382.51953125 C54.171875 378.27109731 54.171875 378.27109731 54.171875 376.08203125 C43.941875 376.08203125 33.711875 376.08203125 23.171875 376.08203125 C23.25308594 380.92375 23.33429688 385.76546875 23.41796875 390.75390625 C23.45378782 393.84381673 23.48748753 396.93346684 23.51367188 400.0234375 C23.55532202 404.91509975 23.6042821 409.80583435 23.69995117 414.69677734 C23.77669779 418.64560259 23.81800647 422.59343168 23.8360157 426.54294586 C23.84882857 428.04037385 23.8738465 429.53775484 23.9119854 431.03475189 C24.26422949 445.45021054 19.23258826 454.55487384 9.4140625 464.90234375 C-3.82905317 477.77631334 -19.53415468 482.58927656 -37.62353516 482.50610352 C-48.39610069 482.23380973 -57.11051887 479.33773043 -66.609375 474.23046875 C-67.3415625 473.85148437 -68.07375 473.4725 -68.828125 473.08203125 C-69.6221875 472.66566406 -70.41625 472.24929688 -71.234375 471.8203125 C-74.70338114 470.83289961 -76.48911081 471.62110619 -79.828125 472.89453125 C-95.9492089 478.9193751 -113.33694894 477.12654643 -128.828125 470.08203125 C-144.36256629 461.92859521 -154.83973818 448.42364336 -160.578125 431.92578125 C-161.99495631 426.96687168 -162.04065559 422.1827654 -161.828125 417.08203125 C-163.024375 417.02015625 -164.220625 416.95828125 -165.453125 416.89453125 C-181.91533568 415.00500078 -197.80025162 405.34613513 -208.10351562 392.49072266 C-220.95618097 375.18010528 -223.98300115 355.48539544 -221.3671875 334.359375 C-219.64822159 326.84648281 -216.25052876 319.94899025 -212.828125 313.08203125 C-213.70597656 312.82808594 -214.58382812 312.57414062 -215.48828125 312.3125 C-228.96185371 307.34855225 -238.38565134 295.36474734 -244.828125 283.08203125 C-251.59258518 266.50132858 -252.26615456 248.24235753 -245.38671875 231.59375 C-241.77099729 223.55857336 -237.08376387 217.2528068 -230.828125 211.08203125 C-230.24546875 210.49808594 -229.6628125 209.91414062 -229.0625 209.3125 C-228.65515625 208.90644531 -228.2478125 208.50039062 -227.828125 208.08203125 C-228.00988281 207.54835937 -228.19164062 207.0146875 -228.37890625 206.46484375 C-235.52951614 185.26970265 -237.65452137 166.0160135 -228.2734375 144.89453125 C-225.89673757 140.26960165 -223.02334063 136.17329648 -219.828125 132.08203125 C-219.31765625 131.39496094 -218.8071875 130.70789063 -218.28125 130 C-210.77678799 120.58227169 -199.85747358 114.48050894 -188.828125 110.08203125 C-188.98796875 109.13714844 -189.1478125 108.19226563 -189.3125 107.21875 C-191.03772597 95.04122417 -190.94958829 81.71805907 -186.828125 70.08203125 C-186.5496875 69.22738281 -186.27125 68.37273437 -185.984375 67.4921875 C-180.07451843 50.95987321 -167.12470496 38.893171 -151.953125 30.83203125 C-141.96293457 26.12039036 -133.11330525 24.8303506 -122.140625 24.76953125 C-121.16633545 24.7638916 -120.1920459 24.75825195 -119.18823242 24.75244141 C-113.11776348 24.81333704 -107.70677234 25.5624221 -101.828125 27.08203125 C-101.456875 25.77685547 -101.456875 25.77685547 -101.078125 24.4453125 C-96.18365755 11.27613603 -83.25403825 0.09456992 -70.828125 -5.91796875 C-46.92807252 -15.57746422 -21.65894239 -14.68859215 0 0 Z M-78.828125 21.08203125 C-83.30675541 26.51324928 -83.30675541 26.51324928 -84.828125 33.08203125 C-84.27125 33.36175781 -83.714375 33.64148438 -83.140625 33.9296875 C-71.19439047 40.20549652 -64.26995413 48.09132024 -59.515625 60.76953125 C-56.5490351 70.36150526 -54.73726588 83.66396936 -58.7265625 93.23828125 C-60.31713776 95.9005207 -61.86962184 96.32520486 -64.828125 97.08203125 C-67.5138349 96.89019483 -69.20471588 96.47888076 -71.47265625 95.03515625 C-73.6212833 91.93915185 -73.04837195 88.63638771 -72.890625 85.01953125 C-72.66200356 73.94422203 -73.63589836 63.93992797 -81.265625 55.33203125 C-82.11125 54.58953125 -82.956875 53.84703125 -83.828125 53.08203125 C-85.00375 52.03015625 -85.00375 52.03015625 -86.203125 50.95703125 C-90.90870016 47.59590614 -95.93483239 45.89616136 -101.54296875 44.62109375 C-103.23361481 44.22227468 -104.9121746 43.77142413 -106.58203125 43.29296875 C-120.77066427 39.33421065 -134.28567327 40.51315026 -147.3828125 47.50390625 C-152.02134423 50.49746347 -155.93216064 54.192819 -159.828125 58.08203125 C-160.41722656 58.65953125 -161.00632812 59.23703125 -161.61328125 59.83203125 C-171.2260966 70.05947674 -173.50557695 83.63517371 -173.2109375 97.12109375 C-172.77508662 105.21412339 -170.82259569 113.76919619 -165.29296875 119.88671875 C-160.10720999 124.50541355 -155.74845276 126.14943704 -148.828125 126.08203125 C-146.46643461 125.62962952 -144.16997318 125.04345674 -141.84375 124.4375 C-138.99364831 123.93486579 -137.25073391 124.56790068 -134.828125 126.08203125 C-133.2335689 129.27114346 -133.45046703 132.61185329 -133.828125 136.08203125 C-135.41103064 138.87539415 -136.89507299 139.1044029 -139.9609375 140.12890625 C-149.92056775 142.583603 -160.82963351 142.31494575 -169.828125 137.08203125 C-171.5356248 135.8014064 -173.22184431 134.48752686 -174.828125 133.08203125 C-175.488125 133.08203125 -176.148125 133.08203125 -176.828125 133.08203125 C-177.116875 132.48390625 -177.405625 131.88578125 -177.703125 131.26953125 C-178.87554526 128.88875333 -178.87554526 128.88875333 -180.828125 126.08203125 C-193.69822758 129.62597254 -203.94032283 136.57223678 -211.078125 147.95703125 C-219.01441782 162.01313569 -220.85680596 175.7122972 -216.77734375 191.42578125 C-215.77081728 194.24239854 -214.44916737 196.57554556 -212.828125 199.08203125 C-211.69375 198.75203125 -210.559375 198.42203125 -209.390625 198.08203125 C-195.77113232 195.11285275 -182.96457229 196.45552984 -171.078125 203.89453125 C-166.50763611 207.12511063 -161.37444522 210.9893908 -158.828125 216.08203125 C-158.37742077 223.1806228 -158.37742077 223.1806228 -159.828125 226.08203125 C-163.21456683 227.77525216 -166.24128419 228.1315143 -169.828125 227.08203125 C-171.83615124 225.27480763 -173.38961682 223.31574922 -175.05078125 221.1875 C-179.53097987 215.88018779 -185.95678492 212.7801888 -192.828125 212.08203125 C-204.10401507 211.79377541 -212.61208332 216.15874695 -220.72265625 223.78125 C-230.36913994 234.32258376 -234.07646819 245.94199071 -233.828125 260.08203125 C-232.02753424 273.313158 -225.88212731 284.748425 -215.359375 293.0234375 C-209.18069186 297.23039381 -202.80485967 299.70349671 -195.69921875 301.84375 C-192.828125 303.08203125 -192.828125 303.08203125 -191.4296875 305.02734375 C-190.41609268 308.48936244 -190.85572275 310.59282316 -191.828125 314.08203125 C-192.85798999 315.51776796 -193.9484316 316.91094572 -195.078125 318.26953125 C-202.3599448 327.06154366 -206.48614615 339.29180826 -206.0703125 350.7734375 C-204.44281956 366.28712019 -198.74598144 379.74417525 -186.49121094 389.84179688 C-177.46797517 396.57081004 -166.20754683 401.55141654 -154.828125 401.08203125 C-143.77915285 398.7445294 -128.36909332 393.71551027 -121.53515625 384.30078125 C-120.2250169 381.78348294 -118.9180782 379.27193245 -117.703125 376.70703125 C-116.828125 375.08203125 -116.828125 375.08203125 -114.828125 374.08203125 C-107.64596887 373.51201886 -107.64596887 373.51201886 -104.765625 375.51953125 C-103.28898683 379.55567559 -103.71914549 382.97069256 -104.828125 387.08203125 C-111.60863013 401.68619614 -125.92727791 407.90304618 -140.06542969 413.37353516 C-142.04628425 414.16971797 -143.94704668 415.07255205 -145.828125 416.08203125 C-145.27708557 429.03145792 -140.3883024 440.00535357 -130.8125 448.96875 C-128.87697118 450.48135816 -126.92792229 451.80892581 -124.828125 453.08203125 C-124.21453125 453.4584375 -123.6009375 453.83484375 -122.96875 454.22265625 C-111.61557721 460.50912383 -100.12840965 461.38743878 -87.84765625 458.05078125 C-78.03333827 454.9020738 -68.73506853 449.39546897 -63.328125 440.33203125 C-60.10949856 433.35834062 -59.4344797 425.4435204 -61.79296875 418.0625 C-62.54656901 416.20767917 -63.30169101 414.35347562 -64.05859375 412.5 C-64.828125 410.08203125 -64.828125 410.08203125 -64.265625 406.51953125 C-62.828125 404.08203125 -62.828125 404.08203125 -59.828125 402.08203125 C-56.61712646 401.74043566 -54.60256234 401.63592 -51.7734375 403.265625 C-49.37892222 405.50146758 -48.6786595 407.36411214 -47.640625 410.45703125 C-47.31707031 411.39289063 -46.99351562 412.32875 -46.66015625 413.29296875 C-42.84418939 426.08451962 -44.57897555 438.25721571 -50.765625 449.95703125 C-52.82091036 453.62914109 -55.14113019 456.84370921 -57.828125 460.08203125 C-55.93479966 460.90035847 -54.03834767 461.71145393 -52.140625 462.51953125 C-51.08488281 462.97199219 -50.02914062 463.42445313 -48.94140625 463.890625 C-37.83766134 468.13986239 -26.62659879 466.46382401 -15.828125 462.08203125 C-5.7301215 457.18816642 2.97291543 449.70763738 7.171875 439.08203125 C8.05152504 432.94367242 8.00419874 426.86708065 7.96411133 420.67651367 C7.97389125 418.82109134 7.98620226 416.9656809 8.00083923 415.11029053 C8.03233406 410.0960197 8.02601306 405.08247228 8.01075959 400.06815124 C8.00158647 395.87781096 8.01132413 391.68760171 8.02109832 387.49726945 C8.04396652 377.61565076 8.03647172 367.73438142 8.0090332 357.8527832 C7.98118023 347.65949719 8.00065007 337.46708792 8.04390889 327.27387542 C8.07965727 318.51351384 8.08824608 309.75342287 8.07451648 300.9929989 C8.0664678 295.76417028 8.06827887 290.53583359 8.09537697 285.30705833 C8.11947865 280.39577141 8.10958999 275.48570991 8.07338905 270.57450867 C8.06572758 268.77215929 8.07000831 266.96971394 8.08706284 265.16742897 C8.10842428 262.70727136 8.0867057 260.25113128 8.05403137 257.79118347 C8.07847713 256.72017774 8.07847713 256.72017774 8.10341674 255.62753552 C8.02595814 252.71957679 7.73310159 250.65040191 5.65141046 248.54221213 C-1.30631927 243.46257967 -8.29557991 242.06002724 -16.828125 243.08203125 C-19.21900388 243.9661183 -21.41742074 245.03248835 -23.69140625 246.1796875 C-27.27223905 247.69188563 -29.98374677 247.54600793 -33.828125 247.08203125 C-35.828125 246.08203125 -35.828125 246.08203125 -36.828125 244.08203125 C-37.22637192 241.35119522 -37.38553896 238.79259326 -36.828125 236.08203125 C-32.86851579 230.79386895 -24.88496648 228.71791557 -18.7109375 227.43359375 C-12.33872375 226.71850742 -6.63282776 227.321096 -0.40625 228.58203125 C0.3264209 228.72511719 1.0590918 228.86820313 1.81396484 229.015625 C3.60104666 229.36546157 5.38662751 229.72295124 7.171875 230.08203125 C7.31097322 220.78090225 7.41754465 211.48013192 7.48274803 202.17818928 C7.51404481 197.85873457 7.55648561 193.53999206 7.62451172 189.22094727 C7.68976603 185.05173447 7.72559349 180.88320605 7.74113846 176.71352196 C7.75221418 175.12383436 7.77384362 173.53418372 7.80625534 171.94478798 C7.84990503 169.7153839 7.85580638 167.48879672 7.85302734 165.2590332 C7.86635101 163.991064 7.87967468 162.72309479 7.8934021 161.41670227 C6.88215145 156.74302026 5.06097463 155.75534908 1.171875 153.08203125 C-4.11240471 150.1463203 -10.70883328 149.47403371 -16.59375 150.62109375 C-20.4544511 151.73866512 -23.46448127 152.83960209 -26.828125 155.08203125 C-28.765625 155.34765625 -28.765625 155.34765625 -30.828125 155.33203125 C-31.50875 155.3371875 -32.189375 155.34234375 -32.890625 155.34765625 C-34.828125 155.08203125 -34.828125 155.08203125 -37.828125 153.08203125 C-39.22879046 147.26388243 -39.22879046 147.26388243 -38.12890625 144.01953125 C-34.8383459 139.11827619 -26.70184681 136.52934389 -21.140625 135.36328125 C-13.35654901 134.41656931 -6.17272086 134.65527223 1.41894531 136.60473633 C2.49702454 136.87989578 3.57510376 137.15505524 4.68585205 137.43855286 C5.50623962 137.65090073 6.3266272 137.8632486 7.171875 138.08203125 C7.39530948 125.02413597 7.61758933 111.96624156 7.80102539 98.90771484 C7.81142758 98.16763813 7.82182978 97.42756142 7.83254719 96.66505814 C7.87421439 93.68815938 7.91565463 90.71125799 7.95625496 87.73434448 C8.06596122 79.70265699 8.1920716 71.67227016 8.38619995 63.64207458 C8.46459148 60.24859449 8.52027422 56.85505388 8.56884766 53.46102905 C8.59548825 51.97936654 8.6327736 50.49785021 8.68164062 49.01675415 C9.0740037 36.92128659 5.97006859 29.66207101 -1.515625 20.33203125 C-9.92895998 11.37383267 -22.33734218 4.599969 -34.734375 3.84375 C-51.98302676 3.42571499 -66.68618671 8.23959652 -78.828125 21.08203125 Z M72.171875 55.08203125 C69.62019987 58.56158824 69.74303516 61.86510615 70.171875 66.08203125 C71.61816545 70.08398267 73.4421022 72.53894451 76.859375 75.08203125 C81.24620867 76.40635839 84.76102677 76.28646951 89.171875 75.08203125 C92.76363434 72.86583931 94.5474172 70.92165878 96.171875 67.08203125 C96.94217203 63.07500536 97.05000883 59.53391509 94.8984375 55.9765625 C91.23677888 51.59934208 91.23677888 51.59934208 86 49.80859375 C79.49257042 49.55224046 76.59367083 50.21805583 72.171875 55.08203125 Z M142.796875 54.08203125 C140.05794769 57.4530187 139.82394969 60.75326789 139.89453125 65.01953125 C140.3634998 68.50707198 141.87783701 70.48614615 144.171875 73.08203125 C148.48377575 76.19061086 151.95223078 76.50356825 157.0546875 75.73046875 C161.55222531 74.35299407 163.67908361 70.82121834 166.171875 67.08203125 C166.60303234 61.73568028 166.65215271 58.40237599 163.171875 54.08203125 C156.46155577 47.553072 149.88381964 48.11407787 142.796875 54.08203125 Z M221.796875 142.70703125 C219.71394755 147.03311134 219.48205086 150.36677762 220.171875 155.08203125 C221.51185693 158.85073044 223.45478868 160.50895343 226.796875 162.51953125 C230.8703151 164.35745542 233.86102583 164.27996037 238.12109375 163.05859375 C242.10896256 161.1596086 244.21577417 157.9942329 246.171875 154.08203125 C246.55025531 149.06849214 246.30323139 146.0772101 243.171875 142.08203125 C238.84320666 138.24889062 238.84320666 138.24889062 233.421875 136.83203125 C228.22888708 137.23149186 225.28052359 138.85668281 221.796875 142.70703125 Z M223.171875 310.08203125 C220.48720759 313.26067747 219.171875 316.2397013 219.171875 320.42578125 C219.84971406 324.66227538 220.93492687 326.81123339 223.796875 330.08203125 C228.04530987 332.59962228 230.23480405 333.08203125 235.171875 333.08203125 C239.85273365 331.46173403 242.62113474 329.33326502 245.171875 325.08203125 C246.42529842 320.92684678 246.47261812 317.95084471 245.046875 313.83203125 C242.17429065 309.61890754 239.77206492 307.56510745 234.859375 306.08203125 C230.06428464 306.08203125 226.94526464 307.11547871 223.171875 310.08203125 Z M71.171875 401.08203125 C69.96543934 404.70133823 69.84918941 407.2743413 70.171875 411.08203125 C72.88400531 416.11884468 75.49061584 419.24786173 80.984375 420.95703125 C86.10507079 421.15784285 89.72028531 419.3426223 93.546875 416.01953125 C96.47302321 412.53066223 96.5132932 409.83060045 96.44921875 405.40234375 C96.01391273 401.76048774 94.60333636 399.76943591 92.171875 397.08203125 C84.1184312 391.8297853 77.20281126 393.78142419 71.171875 401.08203125 Z M141.796875 399.70703125 C139.72071366 404.01905864 139.45906099 407.37919734 140.171875 412.08203125 C141.9128926 416.29712648 144.06126913 418.17012154 148.171875 420.08203125 C152.04901505 421.2620304 153.88785414 421.17017566 157.796875 419.95703125 C161.88952326 417.68333777 164.09159595 415.24258935 166.171875 411.08203125 C166.55025531 406.06849214 166.30323139 403.0772101 163.171875 399.08203125 C158.84320666 395.24889062 158.84320666 395.24889062 153.421875 393.83203125 C148.22888708 394.23149186 145.28052359 395.85668281 141.796875 399.70703125 Z " fill="#000000" transform="translate(249.828125,20.91796875)"/>
<path d="M0 0 C3.68127328 2.84915907 4.59245314 5.25085394 5.4375 9.75 C7.36435665 18.25510383 10.84563825 23.99194677 18 29 C23.6212307 32.02681653 28.7606938 32.55654518 35 33 C38.52162767 33.32607664 40.42834716 33.62391261 43.375 35.5625 C45.35568388 38.53352582 45.51284796 40.50459739 45.62890625 44 C44.61141743 47.23574084 42.85597005 48.26818838 40 50 C28.01396313 51.78543375 16.81300214 49.4039014 6.6875 42.75 C-3.30073203 35.21080563 -9.83334827 25.40900535 -12 13 C-12.47024294 8.63759238 -12.75803088 5.29496942 -10.5 1.4375 C-7.08273462 -0.52742759 -3.84435972 -1.02115805 0 0 Z " fill="#000000" transform="translate(172,290)"/>
<path d="M0 0 C4.91366804 3.71130229 9.8358881 8.17177619 12.625 13.75 C13.11799302 18.10477171 13.07782859 20.09134023 10.5625 23.75 C7.625 25.75 7.625 25.75 4.125 25.875 C-0.02597858 24.54075689 -1.49727607 22.98743942 -4.375 19.75 C-10.68147285 13.67202254 -17.31936824 9.7331992 -26.375 9.75 C-30.89816256 10.32027784 -34.95434644 11.47391118 -39.0625 13.4375 C-42.85236321 14.93914391 -44.54832208 15.11059659 -48.375 13.75 C-51.19331785 11.15418092 -52.23064038 9.51991795 -52.9375 5.75 C-52.14756076 1.53699071 -50.78752989 0.34352271 -47.375 -2.25 C-32.03355171 -9.74467474 -14.46780635 -9.55050057 0 0 Z " fill="#000000" transform="translate(168.375,197.25)"/>
<path d="M0 0 C3.73785618 0.70084803 5.39432914 1.80793366 8 4.5625 C9.15890285 7.68262305 8.97180351 10.53826356 8.875 13.8125 C8.8470058 22.26674861 11.71657511 28.33950487 17.47265625 34.4921875 C21.31021326 37.63578134 25.54918248 39.38181743 30.14453125 41.17578125 C33.16779157 42.64398564 34.38187146 43.65319354 36 46.5625 C36.48071685 50.40823483 36.54771911 52.63375891 34.5625 56 C30.61739976 58.40554893 27.3946885 58.4713166 23 57.5625 C11.19905351 53.1746192 1.66815852 46.25885893 -4.00390625 34.77734375 C-4.33261719 34.04644531 -4.66132812 33.31554687 -5 32.5625 C-5.31839844 31.92441406 -5.63679688 31.28632813 -5.96484375 30.62890625 C-8.19843191 25.34858032 -8.37052662 19.97031697 -8.5 14.3125 C-8.5306958 13.53140869 -8.5613916 12.75031738 -8.59301758 11.94555664 C-8.59439208 7.67865215 -8.3660558 6.0328817 -5.65625 2.55078125 C-3 0.5625 -3 0.5625 0 0 Z " fill="#000000" transform="translate(103,290.4375)"/>
</svg>
