<?xml version="1.0" encoding="UTF-8"?>
<svg version="1.1" xmlns="http://www.w3.org/2000/svg" width="160" height="160">
<path d="M0 0 C2 1 2 1 3.5625 4.4375 C5.31423735 8.09019678 7.43540148 10.78214463 10.1875 13.75 C29.74857359 34.88237294 38.09930571 58.45149754 37.17480469 87.14306641 C35.94530889 107.23742367 25.14698229 123.41151429 10.99926758 136.92822266 C6.03715219 141.71928549 5.79116809 145.54897603 5.4375 152.1875 C5.39431641 152.93708984 5.35113281 153.68667969 5.30664062 154.45898438 C5.20077315 156.30578375 5.0999024 158.15286834 5 160 C3.35 159.67 1.7 159.34 0 159 C-0.06574219 157.83984375 -0.13148437 156.6796875 -0.19921875 155.484375 C-0.88280535 147.91208873 -1.52120469 141.47655094 -7.35449219 136.15380859 C-9.08557772 134.73103246 -10.82631094 133.3209678 -12.5703125 131.9140625 C-22.18820483 124.10521169 -27.93234864 112.45117693 -32 101 C-32.33902344 100.09636719 -32.67804687 99.19273438 -33.02734375 98.26171875 C-39.54868305 77.49561065 -34.69487425 52.24064026 -25.08886719 33.19335938 C-19.86656064 23.52965194 -12.91544181 15.76347083 -5.0625 8.1875 C-2.48793922 5.67253554 -0.96742107 3.54721061 0 0 Z " fill="#4B9E4C" transform="translate(79,0)"/>
<path d="M0 0 C0.04685556 15.82994876 0.08205497 31.65987859 0.10362434 47.48987961 C0.11390846 54.84109576 0.12791358 62.19226866 0.15087891 69.54345703 C0.17090096 75.95559986 0.18373722 82.36771135 0.18817699 88.77988458 C0.19076954 92.17067617 0.19680241 95.56137813 0.21146011 98.95214081 C0.22606703 102.75037356 0.22797408 106.54842318 0.22705078 110.34667969 C0.23424133 111.45367722 0.24143188 112.56067474 0.24884033 113.70121765 C0.22981004 120.97904917 -0.59353089 127.86100959 -2 135 C-11.60753058 133.30223225 -17.56949574 124.58962041 -23 117 C-35.70453143 98.2331403 -38.90286484 76.21575662 -34.875 54.0625 C-30.596501 36.13260419 -22.96821213 21.2839599 -10 8 C-9.24847656 7.20980469 -8.49695313 6.41960938 -7.72265625 5.60546875 C-2.29389229 -0 -2.29389229 -0 0 0 Z " fill="#4E9547" transform="translate(80,4)"/>
<path d="M0 0 C0.33 0 0.66 0 1 0 C1.04898438 1.26714844 1.09796875 2.53429687 1.1484375 3.83984375 C1.22354191 5.53908096 1.29908632 7.23829876 1.375 8.9375 C1.4059375 9.76830078 1.436875 10.59910156 1.46875 11.45507812 C1.73617703 17.18247369 2.61822587 22.43358471 4 28 C5.32 28.33 6.64 28.66 8 29 C7.51917969 29.65355469 7.03835937 30.30710938 6.54296875 30.98046875 C4.57011675 34.8412652 4.44615382 38.03939635 4.3125 42.3125 C4.26125977 43.42334961 4.26125977 43.42334961 4.20898438 44.55664062 C4.12706446 46.37058164 4.06184178 48.18526353 4 50 C2.35 49.67 0.7 49.34 -1 49 C-1.30744141 47.08574219 -1.30744141 47.08574219 -1.62109375 45.1328125 C-1.89305815 43.46351379 -2.16520291 41.79424447 -2.4375 40.125 C-2.57220703 39.28324219 -2.70691406 38.44148438 -2.84570312 37.57421875 C-2.97783203 36.76855469 -3.10996094 35.96289062 -3.24609375 35.1328125 C-3.36654053 34.38918457 -3.4869873 33.64555664 -3.61108398 32.87939453 C-3.93247105 30.92115353 -3.93247105 30.92115353 -5 29 C-4.01 29 -3.02 29 -2 29 C-1.34 19.43 -0.68 9.86 0 0 Z " fill="#AAAA8E" transform="translate(80,110)"/>
<path d="M0 0 C3.05882701 1.52941351 3.68951234 3.94219546 5 7 C4.67 7.66 4.34 8.32 4 9 C3.34 8.67 2.68 8.34 2 8 C2.03029297 9.21727783 2.06058594 10.43455566 2.09179688 11.6887207 C2.66504578 35.13435548 3.11407203 58.57964402 3.17724609 82.0328064 C3.18408477 84.30351017 3.19434143 86.57420621 3.20800781 88.84487915 C3.2257214 92.02035992 3.23016418 95.19556971 3.23046875 98.37109375 C3.23761398 99.32090118 3.24475922 100.27070862 3.25212097 101.2492981 C3.24908463 102.11376556 3.24604828 102.97823303 3.24291992 103.86889648 C3.24434494 104.62267075 3.24576996 105.37644501 3.24723816 106.15306091 C3 108 3 108 1 110 C1 75.02 1 40.04 1 4 C0.34 4 -0.32 4 -1 4 C-0.67 2.68 -0.34 1.36 0 0 Z " fill="#61AD5C" transform="translate(79,0)"/>
<path d="M0 0 C0.33 0 0.66 0 1 0 C1.33 7.59 1.66 15.18 2 23 C1.34 23 0.68 23 0 23 C0 29.6 0 36.2 0 43 C-2.40746025 40.59253975 -2.49105426 39.30382074 -3.0625 36 C-3.67293653 32.38219325 -3.67293653 32.38219325 -5 29 C-4.01 29 -3.02 29 -2 29 C-1.34 19.43 -0.68 9.86 0 0 Z " fill="#91A27D" transform="translate(80,110)"/>
<path d="M0 0 C3.05882701 1.52941351 3.68951234 3.94219546 5 7 C4.67 7.66 4.34 8.32 4 9 C3.34 8.67 2.68 8.34 2 8 C2 16.25 2 24.5 2 33 C1.67 33 1.34 33 1 33 C1 23.43 1 13.86 1 4 C0.34 4 -0.32 4 -1 4 C-0.67 2.68 -0.34 1.36 0 0 Z " fill="#74B371" transform="translate(79,0)"/>
</svg>
