<?xml version="1.0" encoding="UTF-8"?>
<svg version="1.1" xmlns="http://www.w3.org/2000/svg" width="96" height="96">
<path d="M0 0 C0.72030396 -0.00175232 1.44060791 -0.00350464 2.18273926 -0.00531006 C4.57497534 -0.00972835 6.9671381 -0.00679068 9.359375 -0.00341797 C11.01464858 -0.00409101 12.66992207 -0.00506105 14.32519531 -0.00631714 C17.79883767 -0.00779408 21.27245437 -0.00563968 24.74609375 -0.00097656 C29.20869998 0.00472073 33.67124608 0.0014417 38.1338501 -0.00454903 C41.5532273 -0.00815474 44.97259015 -0.00701601 48.39196777 -0.00442123 C50.03788256 -0.00375199 51.68379863 -0.00458029 53.32971191 -0.00690079 C55.62609331 -0.00942749 57.92237599 -0.0055865 60.21875 0 C61.52811523 0.00079559 62.83748047 0.00159119 64.18652344 0.00241089 C67.109375 0.12939453 67.109375 0.12939453 68.109375 1.12939453 C68.2085407 2.75196997 68.24017277 4.37879284 68.2421875 6.00439453 C68.24347656 6.98923828 68.24476562 7.97408203 68.24609375 8.98876953 C68.24222656 10.02517578 68.23835938 11.06158203 68.234375 12.12939453 C68.23824219 13.16580078 68.24210937 14.20220703 68.24609375 15.27001953 C68.24480469 16.25486328 68.24351563 17.23970703 68.2421875 18.25439453 C68.24105957 19.16447266 68.23993164 20.07455078 68.23876953 21.01220703 C68.109375 23.12939453 68.109375 23.12939453 67.109375 24.12939453 C64.43878649 24.27054614 61.78505262 24.1718656 59.109375 24.12939453 C59.604375 26.10939453 59.604375 26.10939453 60.109375 28.12939453 C61.24375 28.10876953 62.378125 28.08814453 63.546875 28.06689453 C67.109375 28.12939453 67.109375 28.12939453 68.109375 29.12939453 C68.2085407 30.75196997 68.24017277 32.37879284 68.2421875 34.00439453 C68.24347656 34.98923828 68.24476562 35.97408203 68.24609375 36.98876953 C68.24222656 38.02517578 68.23835938 39.06158203 68.234375 40.12939453 C68.23824219 41.16580078 68.24210937 42.20220703 68.24609375 43.27001953 C68.24480469 44.25486328 68.24351563 45.23970703 68.2421875 46.25439453 C68.24105957 47.16447266 68.23993164 48.07455078 68.23876953 49.01220703 C68.109375 51.12939453 68.109375 51.12939453 67.109375 52.12939453 C64.77640067 52.17032391 62.44232275 52.17181176 60.109375 52.12939453 C59.779375 53.44939453 59.449375 54.76939453 59.109375 56.12939453 C60.40875 56.10876953 61.708125 56.08814453 63.046875 56.06689453 C64.40103133 56.04539999 65.75693583 56.05791255 67.109375 56.12939453 C68.76331617 57.7833357 68.23937183 59.73254867 68.2421875 62.00439453 C68.24347656 62.98923828 68.24476562 63.97408203 68.24609375 64.98876953 C68.24222656 66.02517578 68.23835938 67.06158203 68.234375 68.12939453 C68.23824219 69.16580078 68.24210937 70.20220703 68.24609375 71.27001953 C68.24480469 72.25486328 68.24351563 73.23970703 68.2421875 74.25439453 C68.24105957 75.16447266 68.23993164 76.07455078 68.23876953 77.01220703 C68.109375 79.12939453 68.109375 79.12939453 67.109375 80.12939453 C64.81426004 80.22910608 62.51602951 80.2573932 60.21875 80.25878906 C59.49844604 80.26054138 58.77814209 80.2622937 58.03601074 80.26409912 C55.64377466 80.26851742 53.2516119 80.26557974 50.859375 80.26220703 C49.20410142 80.26288008 47.54882793 80.26385011 45.89355469 80.2651062 C42.41991233 80.26658314 38.94629563 80.26442874 35.47265625 80.25976562 C31.01005002 80.25406833 26.54750392 80.25734736 22.0848999 80.26333809 C18.6655227 80.2669438 15.24615985 80.26580507 11.82678223 80.2632103 C10.18086744 80.26254106 8.53495137 80.26336935 6.88903809 80.26568985 C4.59265669 80.26821655 2.29637401 80.26437557 0 80.25878906 C-1.96404785 80.25759567 -1.96404785 80.25759567 -3.96777344 80.25637817 C-6.890625 80.12939453 -6.890625 80.12939453 -7.890625 79.12939453 C-7.9897907 77.50681909 -8.02142277 75.87999622 -8.0234375 74.25439453 C-8.02472656 73.26955078 -8.02601562 72.28470703 -8.02734375 71.27001953 C-8.02347656 70.23361328 -8.01960937 69.19720703 -8.015625 68.12939453 C-8.02142578 66.57478516 -8.02142578 66.57478516 -8.02734375 64.98876953 C-8.02605469 64.00392578 -8.02476563 63.01908203 -8.0234375 62.00439453 C-8.02230957 61.09431641 -8.02118164 60.18423828 -8.02001953 59.24658203 C-7.890625 57.12939453 -7.890625 57.12939453 -6.890625 56.12939453 C-4.22003649 55.98824292 -1.56630262 56.08692346 1.109375 56.12939453 C0.779375 54.80939453 0.449375 53.48939453 0.109375 52.12939453 C-1.5921875 52.16033203 -1.5921875 52.16033203 -3.328125 52.19189453 C-6.890625 52.12939453 -6.890625 52.12939453 -7.890625 51.12939453 C-7.9897907 49.50681909 -8.02142277 47.87999622 -8.0234375 46.25439453 C-8.02472656 45.26955078 -8.02601562 44.28470703 -8.02734375 43.27001953 C-8.02347656 42.23361328 -8.01960937 41.19720703 -8.015625 40.12939453 C-8.02142578 38.57478516 -8.02142578 38.57478516 -8.02734375 36.98876953 C-8.02605469 36.00392578 -8.02476563 35.01908203 -8.0234375 34.00439453 C-8.02230957 33.09431641 -8.02118164 32.18423828 -8.02001953 31.24658203 C-7.890625 29.12939453 -7.890625 29.12939453 -6.890625 28.12939453 C-4.55765067 28.08846516 -2.22357275 28.0869773 0.109375 28.12939453 C0.439375 26.80939453 0.769375 25.48939453 1.109375 24.12939453 C-0.19 24.15001953 -1.489375 24.17064453 -2.828125 24.19189453 C-4.18228133 24.21338908 -5.53818583 24.20087652 -6.890625 24.12939453 C-8.54456617 22.47545336 -8.02062183 20.5262404 -8.0234375 18.25439453 C-8.02472656 17.26955078 -8.02601562 16.28470703 -8.02734375 15.27001953 C-8.02347656 14.23361328 -8.01960937 13.19720703 -8.015625 12.12939453 C-8.02142578 10.57478516 -8.02142578 10.57478516 -8.02734375 8.98876953 C-8.02605469 8.00392578 -8.02476563 7.01908203 -8.0234375 6.00439453 C-8.02230957 5.09431641 -8.02118164 4.18423828 -8.02001953 3.24658203 C-7.7355063 -1.40869855 -3.84547662 0.00233658 0 0 Z " fill="#CFC2E8" transform="translate(17.890625,7.87060546875)"/>
<path d="M0 0 C3.69510262 0.69283174 4.70252503 1.62819828 7 4.5625 C7.42578125 7.4375 7.42578125 7.4375 7.3125 10.5625 C7.28800781 11.59375 7.26351562 12.625 7.23828125 13.6875 C7.03635277 16.12388293 6.62250963 18.21417097 6 20.5625 C6 21.5525 6 22.5425 6 23.5625 C5.01 23.5625 4.02 23.5625 3 23.5625 C2.34 22.9025 1.68 22.2425 1 21.5625 C0.01 21.253125 -0.98 20.94375 -2 20.625 C-5 19.5625 -5 19.5625 -7 16.5625 C-7.67825372 11.46771042 -7.72758587 6.98968768 -5.375 2.375 C-3 0.5625 -3 0.5625 0 0 Z " fill="#5A38AC" transform="translate(64,37.4375)"/>
<path d="M0 0 C1.65 0 3.3 0 5 0 C6.61064629 3.65079826 7.44894091 7.0507432 8 11 C9.96301592 7.49461443 10.95902388 3.86648272 12 0 C13.65 0 15.3 0 17 0 C17 6.6 17 13.2 17 20 C15.68 20 14.36 20 13 20 C12.67 17.69 12.34 15.38 12 13 C11.34 15.31 10.68 17.62 10 20 C9.01 20 8.02 20 7 20 C6.34 17.69 5.68 15.38 5 13 C4.67 15.31 4.34 17.62 4 20 C2.68 20 1.36 20 0 20 C0 13.4 0 6.8 0 0 Z " fill="#5835AB" transform="translate(12,38)"/>
<path d="M0 0 C0.928125 0.20625 1.85625 0.4125 2.8125 0.625 C3.1425 2.275 3.4725 3.925 3.8125 5.625 C2.8225 5.625 1.8325 5.625 0.8125 5.625 C0.8125 4.965 0.8125 4.305 0.8125 3.625 C-0.5075 3.625 -1.8275 3.625 -3.1875 3.625 C-2.45387639 6.90664825 -2.45387639 6.90664825 0.8125 8.4375 C3.8125 10.625 3.8125 10.625 4.875 13.6875 C4.8125 16.625 4.8125 16.625 3.75 18.5 C0.90863641 20.14982402 -0.95829642 20.0863148 -4.1875 19.625 C-6.5625 17.75 -6.5625 17.75 -8.1875 15.625 C-8.1875 14.965 -8.1875 14.305 -8.1875 13.625 C-6.8675 13.625 -5.5475 13.625 -4.1875 13.625 C-3.8575 14.285 -3.5275 14.945 -3.1875 15.625 C-1.16286745 16.27713292 -1.16286745 16.27713292 0.8125 16.625 C0.8125 15.305 0.8125 13.985 0.8125 12.625 C0.049375 12.356875 -0.71375 12.08875 -1.5 11.8125 C-5.68401972 9.9637471 -5.68401972 9.9637471 -7.1875 7.625 C-7.0625 4.5625 -7.0625 4.5625 -6.1875 1.625 C-3.1875 -0.375 -3.1875 -0.375 0 0 Z " fill="#5C3AAD" transform="translate(50.1875,38.375)"/>
<path d="M0 0 C1.32 0 2.64 0 4 0 C4.66 1.65 5.32 3.3 6 5 C6.33 3.35 6.66 1.7 7 0 C8.32 0 9.64 0 11 0 C10.38251126 2.77270429 9.75637544 5.54295598 9.125 8.3125 C8.95097656 9.09818359 8.77695312 9.88386719 8.59765625 10.69335938 C8.42363281 11.45068359 8.24960937 12.20800781 8.0703125 12.98828125 C7.91320801 13.68477783 7.75610352 14.38127441 7.59423828 15.09887695 C7 17 7 17 5 20 C3.68 20 2.36 20 1 20 C1 19.01 1 18.02 1 17 C1.66 16.67 2.32 16.34 3 16 C2.30834212 10.58201328 1.24200752 5.3177215 0 0 Z " fill="#5633AA" transform="translate(31,48)"/>
<path d="M0 0 C0.99 0 1.98 0 3 0 C3 5.61 3 11.22 3 17 C5.31 17 7.62 17 10 17 C10 17.99 10 18.98 10 20 C6.7 20 3.4 20 0 20 C0 13.4 0 6.8 0 0 Z " fill="#512EA8" transform="translate(74,38)"/>
<path d="M0 0 C1.32 0.66 2.64 1.32 4 2 C4.05422947 3.4370809 4.09289723 4.87475462 4.125 6.3125 C4.14820312 7.11300781 4.17140625 7.91351563 4.1953125 8.73828125 C4 11 4 11 2 14 C0.68 13.34 -0.64 12.68 -2 12 C-2.05395478 10.37536158 -2.09277195 8.75021459 -2.125 7.125 C-2.14820313 6.22007813 -2.17140625 5.31515625 -2.1953125 4.3828125 C-2 2 -2 2 0 0 Z " fill="#C9BBE5" transform="translate(63,41)"/>
</svg>
