<?xml version="1.0" encoding="UTF-8"?>
<svg version="1.1" xmlns="http://www.w3.org/2000/svg" width="96" height="96">
<path d="M0 0 C4.19347712 1.86360235 8.03771893 4.21581269 11.9375 6.625 C12.97068359 7.24246094 14.00386719 7.85992188 15.06835938 8.49609375 C31.20411864 18.20411864 31.20411864 18.20411864 34 21 C34.11861664 22.35938718 34.17000566 23.72475046 34.19287109 25.08911133 C34.20893402 25.95703812 34.22499695 26.8249649 34.24154663 27.7191925 C34.28586488 31.69763557 34.3270692 35.67590894 34.35009766 39.65454102 C34.36665775 41.75458864 34.39394838 43.85457988 34.43212891 45.9543457 C34.48682838 48.97637277 34.5087618 51.99707615 34.5234375 55.01953125 C34.54610687 55.95819534 34.56877625 56.89685944 34.59213257 57.8639679 C34.57101854 64.36391642 34.57101854 64.36391642 31.84667969 67.39868164 C30.90727539 67.9271167 29.96787109 68.45555176 29 69 C28.04077637 69.59377441 27.08155273 70.18754883 26.09326172 70.79931641 C24.52729248 71.69142822 24.52729248 71.69142822 22.9296875 72.6015625 C21.78628906 73.25640625 20.64289063 73.91125 19.46484375 74.5859375 C18.26834049 75.26582095 17.07172475 75.94550649 15.875 76.625 C13.5172933 77.96972376 11.1609754 79.31685156 8.8046875 80.6640625 C7.76296387 81.25654785 6.72124023 81.8490332 5.64794922 82.45947266 C3.7273557 83.57683806 1.8487972 84.76746853 0 86 C-7.11584288 87.14361761 -10.98227015 84.61768575 -16.875 80.7265625 C-17.926875 79.87191406 -17.926875 79.87191406 -19 79 C-19 78.34 -19 77.68 -19 77 C-16.37050204 75.28071287 -15.12809053 74.98954363 -11.9375 75.25 C-9 76 -9 76 -6 78 C-1.3925431 77.70380918 1.79959732 76.2505055 5.73046875 73.91015625 C6.78041016 73.29076172 7.83035156 72.67136719 8.91210938 72.03320312 C9.99298828 71.38287109 11.07386719 70.73253906 12.1875 70.0625 C13.27998047 69.41603516 14.37246094 68.76957031 15.49804688 68.10351562 C19.38050226 65.79987759 23.24333241 63.50444506 27 61 C27.47870038 58.35451023 27.75248595 55.9498174 27.890625 53.28125 C27.93340576 52.51105026 27.97618652 51.74085052 28.02026367 50.9473114 C29.27674836 36.23356487 29.27674836 36.23356487 25.51171875 22.43505859 C21.70539612 18.80703421 17.18665869 17.20460871 12.21044922 15.73730469 C8.84374128 14.61432501 6.2595319 12.78214301 3.3125 10.8125 C-0.45412961 8.39195153 -0.45412961 8.39195153 -4.80517578 8.23925781 C-8.25516304 9.06075868 -10.68865266 10.27881733 -13.73046875 12.08984375 C-14.78041016 12.70923828 -15.83035156 13.32863281 -16.91210938 13.96679688 C-17.99298828 14.61712891 -19.07386719 15.26746094 -20.1875 15.9375 C-21.8262207 16.90719727 -21.8262207 16.90719727 -23.49804688 17.89648438 C-27.38050226 20.20012241 -31.24333241 22.49555494 -35 25 C-35.36652918 27.70657396 -35.53993494 30.17878309 -35.57421875 32.89453125 C-35.5889473 33.6789006 -35.60367584 34.46326996 -35.61885071 35.27140808 C-35.64282367 36.93319943 -35.65822958 38.59513293 -35.66577148 40.25708008 C-35.6873453 42.79430594 -35.76745632 45.3254385 -35.84960938 47.86132812 C-36.28027454 56.01231389 -36.28027454 56.01231389 -33.27368164 63.23828125 C-29.74728709 65.51144757 -26.23114553 66.76929919 -22 66 C-19.91795642 63.91795642 -20.74178708 59.4661444 -20.68359375 56.58984375 C-20.66281265 55.74780899 -20.64203156 54.90577423 -20.62062073 54.03822327 C-20.55503188 51.33806821 -20.49619724 48.63781283 -20.4375 45.9375 C-20.39432363 44.11131759 -20.35070964 42.28514546 -20.30664062 40.45898438 C-20.19934106 35.97276008 -20.09810034 31.4864345 -20 27 C-17.69 27 -15.38 27 -13 27 C-12.92551884 32.28357911 -12.87124205 37.56684863 -12.83520508 42.85083008 C-12.82017284 44.64613167 -12.79974143 46.44139688 -12.77368164 48.23657227 C-12.73705214 50.82577526 -12.7202179 53.41449028 -12.70703125 56.00390625 C-12.69154739 56.79898087 -12.67606354 57.59405548 -12.66011047 58.41322327 C-12.6585399 63.68277511 -13.46390353 67.34659496 -16 72 C-19.80465507 74.53643671 -22.60858273 74.81554892 -27 74 C-38.38638909 69.43103121 -38.38638909 69.43103121 -42 65 C-42.39440918 62.9957428 -42.39440918 62.9957428 -42.41992188 60.68383789 C-42.43583374 59.81606216 -42.45174561 58.94828644 -42.46813965 58.05421448 C-42.46834106 57.11980026 -42.46854248 56.18538605 -42.46875 55.22265625 C-42.47636353 54.25976181 -42.48397705 53.29686737 -42.49182129 52.30479431 C-42.50262815 50.26808262 -42.50547302 48.23131548 -42.50097656 46.19458008 C-42.50000463 43.0773478 -42.54161122 39.96257958 -42.5859375 36.84570312 C-42.59114471 34.86719264 -42.59383269 32.88867359 -42.59375 30.91015625 C-42.61014526 29.97776627 -42.62654053 29.04537628 -42.64343262 28.08473206 C-42.57454767 21.63754119 -42.57454767 21.63754119 -39.84228516 18.60571289 C-38.90433105 18.07582764 -37.96637695 17.54594238 -37 17 C-36.04077637 16.40622559 -35.08155273 15.81245117 -34.09326172 15.20068359 C-32.52729248 14.30857178 -32.52729248 14.30857178 -30.9296875 13.3984375 C-29.21458984 12.41617187 -29.21458984 12.41617187 -27.46484375 11.4140625 C-26.26834049 10.73417905 -25.07172475 10.05449351 -23.875 9.375 C-21.5172933 8.03027624 -19.1609754 6.68314844 -16.8046875 5.3359375 C-15.76296387 4.74345215 -14.72124023 4.1509668 -13.64794922 3.54052734 C-5.63608547 -1.12062518 -5.63608547 -1.12062518 0 0 Z " fill="#20A265" transform="translate(52,5)"/>
<path d="M0 0 C1.30453125 -0.02578125 2.6090625 -0.0515625 3.953125 -0.078125 C7.99914676 0.2715312 10.3541259 1.05651688 13.75 3.25 C15.46489607 5.55750541 15.89273495 7.42606807 16.75 10.25 C16.42 11.24 16.09 12.23 15.75 13.25 C12.9375 13.5625 12.9375 13.5625 9.75 13.25 C8 10.8125 8 10.8125 6.75 8.25 C3.60658007 6.67829004 0.19228549 7.01824217 -3.25 7.25 C-4.24 7.58 -5.23 7.91 -6.25 8.25 C-6.25 9.24 -6.25 10.23 -6.25 11.25 C-5.1775 11.518125 -4.105 11.78625 -3 12.0625 C-2.278125 12.248125 -1.55625 12.43375 -0.8125 12.625 C1.05353645 13.08013084 2.93055269 13.49092912 4.8125 13.875 C12.92145884 15.62399112 12.92145884 15.62399112 16.5625 18.375 C18.27908543 22.53094367 18.14511052 25.98494783 16.75 30.25 C13.2910814 33.89096695 10.39761154 35.15049268 5.38671875 35.453125 C4.08347656 35.46859375 2.78023437 35.4840625 1.4375 35.5 C0.14199219 35.52578125 -1.15351562 35.5515625 -2.48828125 35.578125 C-7.29273938 35.15904454 -10.64889276 33.797737 -14.125 30.4375 C-15.58532369 27.59798172 -15.46457149 25.39704859 -15.25 22.25 C-12.4375 21.9375 -12.4375 21.9375 -9.25 22.25 C-7.5625 24.6875 -7.5625 24.6875 -6.25 27.25 C-3.43772378 28.18742541 -1.66253156 28.38470844 1.25 28.375 C2.0234375 28.37757812 2.796875 28.38015625 3.59375 28.3828125 C5.93447017 28.33145813 5.93447017 28.33145813 8.75 27.25 C9.08 26.26 9.41 25.27 9.75 24.25 C5.69231432 21.54487621 1.46535213 21.24302817 -3.26953125 20.5703125 C-7.89993495 19.81151264 -10.92820656 18.80815182 -14.25 15.25 C-15.18710383 12.16858211 -14.96348453 9.37706891 -14.25 6.25 C-9.81913358 0.6531161 -6.92836738 0.0815102 0 0 Z " fill="#20A365" transform="translate(56.25,30.75)"/>
</svg>
