<?xml version="1.0" encoding="UTF-8"?>
<svg version="1.1" xmlns="http://www.w3.org/2000/svg" width="96" height="96">
<path d="M0 0 C0.86916887 1.40751221 1.71985149 2.8264521 2.5625 4.25 C3.03816406 5.03890625 3.51382813 5.8278125 4.00390625 6.640625 C5.14645826 9.34690506 5.05053986 10.31337347 4 13 C3.67 13.66 3.34 14.32 3 15 C2.62384874 19.13064626 2.62384874 19.13064626 4.125 22.875 C6.88090884 24.52854531 8.85075452 24.39365568 12 24 C14 23 14 23 15 21 C15.42478586 16.92205575 15.31282587 15.46923881 13 12 C13.25933754 7.33192435 15.62822309 3.90195557 18 0 C22.63404081 1.19161049 24.4048178 3.46655266 26.984375 7.24609375 C30.10093845 12.62815909 29.72210024 19.00795668 29 25 C26.92795553 30.14311039 23.36045089 34.95695124 18.2421875 37.40234375 C12.01483557 39.06224766 5.26474825 39.30497705 -0.765625 36.89453125 C-5.45358817 33.99948115 -9.54167967 30.47108413 -11 25 C-11.95661971 17.97350122 -12.1421793 11.84474266 -8.1875 5.75 C-3.81015038 0 -3.81015038 0 0 0 Z " fill="#4191FD" transform="translate(61,48)"/>
<path d="M0 0 C4.73345669 4.68323434 5.73874662 8.36769795 5.97265625 14.89453125 C5.72917407 22.19899678 4.14615885 26.9108383 -1.15234375 31.95703125 C-3.52734375 33.45703125 -3.52734375 33.45703125 -5.52734375 33.45703125 C-6.39651262 32.04951904 -7.24719524 30.63057915 -8.08984375 29.20703125 C-8.56550781 28.418125 -9.04117188 27.62921875 -9.53125 26.81640625 C-10.67380201 24.11012619 -10.57788361 23.14365778 -9.52734375 20.45703125 C-9.19734375 19.79703125 -8.86734375 19.13703125 -8.52734375 18.45703125 C-8.15119249 14.32638499 -8.15119249 14.32638499 -9.65234375 10.58203125 C-12.40825259 8.92848594 -14.37809827 9.06337557 -17.52734375 9.45703125 C-19.52734375 10.45703125 -19.52734375 10.45703125 -20.52734375 12.45703125 C-20.95212961 16.5349755 -20.84016962 17.98779244 -18.52734375 21.45703125 C-18.78668129 26.1251069 -21.15556684 29.55507568 -23.52734375 33.45703125 C-28.16138456 32.26542076 -29.93216155 29.99047859 -32.51171875 26.2109375 C-35.6282822 20.82887216 -35.24944399 14.44907457 -34.52734375 8.45703125 C-31.91958844 1.98421002 -27.85232887 -1.83226084 -21.52734375 -4.54296875 C-14.18936845 -6.8258944 -5.89208015 -4.83345582 0 0 Z " fill="#F52436" transform="translate(62.52734375,12.54296875)"/>
<path d="M0 0 C0.54140625 0.32226562 1.0828125 0.64453125 1.640625 0.9765625 C1.20566819 5.76108742 -0.78077601 9.77225575 -4.359375 12.9765625 C-7.984375 13.2265625 -7.984375 13.2265625 -11.359375 12.9765625 C-13.44270833 13.89322917 -13.44270833 13.89322917 -14.359375 15.9765625 C-14.6097327 19.60192226 -14.6097327 19.60192226 -14.359375 22.9765625 C-9.90888005 25.42788309 -9.90888005 25.42788309 -5.046875 25.4765625 C-2.82830886 23.72966333 -2.82830886 23.72966333 -1.359375 18.9765625 C2.930625 18.9765625 7.220625 18.9765625 11.640625 18.9765625 C11.33064632 25.69276732 10.49870088 30.14359296 5.640625 34.9765625 C1.15624847 38.5662459 -3.63211602 40.07511954 -9.359375 39.9765625 C-15.49728789 39.22521723 -20.77760037 37.11655867 -24.8046875 32.21875 C-28.40874229 26.96712731 -29.83065235 22.28420288 -29.13671875 15.94140625 C-27.97730786 10.09932614 -25.38842075 5.359037 -20.67578125 1.65234375 C-14.7140548 -1.88007213 -6.42600996 -2.78744141 0 0 Z " fill="#6CD668" transform="translate(34.359375,47.0234375)"/>
</svg>
