<?xml version="1.0" encoding="UTF-8"?>
<svg version="1.1" xmlns="http://www.w3.org/2000/svg" width="160" height="160">
<path d="M0 0 C6.54293178 2.33065217 11.99972342 6.33967818 17.5703125 10.390625 C19.83923192 11.98317278 21.93650012 13.28340494 24.453125 14.4140625 C25.01257813 13.91777344 25.57203125 13.42148437 26.1484375 12.91015625 C35.58574549 4.91423774 45.77873906 -1.99552177 58.59765625 -1.19921875 C63.14323382 -0.22294559 65.79049904 1.62864246 68.453125 5.4140625 C74.65397094 17.07535487 72.43708737 29.96115585 70.453125 42.4140625 C71.41992188 42.77757812 72.38671875 43.14109375 73.3828125 43.515625 C97.64911663 52.80604576 97.64911663 52.80604576 103.453125 64.4140625 C103.97862147 69.20383364 104.02308006 73.202908 101.953125 77.6015625 C96.52389903 83.70944172 91.21484734 87.81173748 83.828125 91.2890625 C82.87812622 91.7365686 82.87812622 91.7365686 81.90893555 92.19311523 C78.10966196 93.89606682 74.58394951 94.91836356 70.453125 95.4140625 C70.6696875 96.46980469 70.6696875 96.46980469 70.890625 97.546875 C73.3226583 110.48394102 73.73241668 122.27193937 68.078125 134.3515625 C65.51857531 137.60022172 62.72795679 139.14974618 58.68359375 139.98828125 C46.74472257 140.43273217 36.36755847 135.12938634 27.453125 127.4140625 C26.4357377 126.43175752 25.42716383 125.43936653 24.453125 124.4140625 C21.34839209 125.82720326 18.94506984 127.54899401 16.328125 129.7265625 C6.72785031 137.34002537 -2.31480974 140.43842265 -14.546875 139.4140625 C-19.17898356 137.54496606 -20.7915906 135.34512109 -22.859375 130.9765625 C-27.34091752 120.10362179 -25.77972513 108.6580578 -23.546875 97.4140625 C-24.62001953 97.011875 -24.62001953 97.011875 -25.71484375 96.6015625 C-37.33483058 92.03173586 -50.66028358 86.18724534 -56.546875 74.4140625 C-57.07237147 69.62429136 -57.11683006 65.625217 -55.046875 61.2265625 C-46.32866214 51.41857304 -35.99159445 46.33893556 -23.546875 42.4140625 C-23.69125 41.43566406 -23.835625 40.45726562 -23.984375 39.44921875 C-25.86163589 26.37185864 -27.53287276 13.82263073 -19.546875 2.4140625 C-13.6026672 -1.93213053 -6.99036072 -1.60821182 0 0 Z M-13.109375 7.9765625 C-17.73018802 12.59737552 -17.67193335 17.47947992 -17.796875 23.7265625 C-17.71695015 29.48115179 -16.95561331 34.84199935 -15.546875 40.4140625 C-12.90071473 40.22289503 -10.26441921 39.99727216 -7.625 39.7265625 C-5.72295676 39.53346166 -3.81593176 39.37946164 -1.90625 39.2890625 C4.07246671 38.68743063 6.5696096 36.68107151 10.390625 32.0390625 C11.76952553 30.18217648 13.12604963 28.30833368 14.453125 26.4140625 C15.05253906 25.69992188 15.65195313 24.98578125 16.26953125 24.25 C16.66011719 23.64414062 17.05070312 23.03828125 17.453125 22.4140625 C16.159306 18.5326055 13.8213513 17.190361 10.578125 14.9765625 C9.99820801 14.57767822 9.41829102 14.17879395 8.82080078 13.76782227 C2.89229124 9.82653618 -6.27460618 3.80902054 -13.109375 7.9765625 Z M29.453125 20.4140625 C32.39873157 26.91360743 37.37874672 35.36093291 43.94921875 38.671875 C46.49721685 39.18555142 48.85541685 39.35953789 51.453125 39.4140625 C53.49538743 39.61647225 55.53707569 39.82476539 57.578125 40.0390625 C59.20269212 40.16956789 60.82756087 40.29662631 62.453125 40.4140625 C64.98478386 30.19701067 66.45686467 19.12344671 61.453125 9.4140625 C59.68645521 7.27151678 59.68645521 7.27151678 57.453125 6.4140625 C46.75272674 6.4140625 37.33863395 13.80040983 29.453125 20.4140625 Z M23.453125 27.4140625 C22.11682754 28.89055188 20.78415829 30.3703258 19.453125 31.8515625 C18.710625 32.67527344 17.968125 33.49898437 17.203125 34.34765625 C15.34541408 36.08993705 15.34541408 36.08993705 15.453125 37.4140625 C20.733125 37.4140625 26.013125 37.4140625 31.453125 37.4140625 C28.74353781 33.34968171 26.87080421 30.58762177 23.453125 27.4140625 Z M7.453125 47.4140625 C5.50951912 50.07330258 3.87729623 52.85676365 2.265625 55.7265625 C1.60916992 56.84708008 1.60916992 56.84708008 0.93945312 57.99023438 C-0.27769423 60.10677 -1.42282174 62.24696169 -2.546875 64.4140625 C-3.07152344 65.39632812 -3.59617188 66.37859375 -4.13671875 67.390625 C-4.79400498 72.23576348 -2.38080782 75.41499189 0.078125 79.4765625 C0.53058594 80.26611328 0.98304687 81.05566406 1.44921875 81.86914062 C5.36628292 89.18909693 5.36628292 89.18909693 11.453125 94.4140625 C13.23100343 94.51061702 15.01247156 94.54481713 16.79296875 94.546875 C18.3872168 94.54880859 18.3872168 94.54880859 20.01367188 94.55078125 C21.12806641 94.54691406 22.24246094 94.54304688 23.390625 94.5390625 C25.05641602 94.54486328 25.05641602 94.54486328 26.75585938 94.55078125 C27.81998047 94.54949219 28.88410156 94.54820313 29.98046875 94.546875 C30.95749756 94.54574707 31.93452637 94.54461914 32.94116211 94.54345703 C35.58177063 94.51951719 35.58177063 94.51951719 38.453125 93.4140625 C39.96742106 91.39025844 39.96742106 91.39025844 41.3359375 88.86328125 C41.86316406 87.93708984 42.39039063 87.01089844 42.93359375 86.05664062 C43.47628906 85.08146484 44.01898438 84.10628906 44.578125 83.1015625 C45.12855469 82.13798828 45.67898437 81.17441406 46.24609375 80.18164062 C49.66636647 74.60077141 49.66636647 74.60077141 51.453125 68.4140625 C50.7500577 66.31698703 50.7500577 66.31698703 49.50390625 64.26171875 C49.06755859 63.48505859 48.63121094 62.70839844 48.18164062 61.90820312 C47.71435547 61.10576172 47.24707031 60.30332031 46.765625 59.4765625 C46.31767578 58.67798828 45.86972656 57.87941406 45.40820312 57.05664062 C41.35567427 49.19275636 41.35567427 49.19275636 34.453125 44.4140625 C30.83250841 44.1582707 27.20682997 44.18274309 23.578125 44.1640625 C22.08732422 44.133125 22.08732422 44.133125 20.56640625 44.1015625 C13.41028556 43.91853934 13.41028556 43.91853934 7.453125 47.4140625 Z M48.453125 46.4140625 C50.09490765 51.19015748 52.71859202 55.20789154 55.453125 59.4140625 C57.90152088 55.74146867 59.453125 52.86758049 59.453125 48.4140625 C55.57628413 47.22118839 52.53690577 46.4140625 48.453125 46.4140625 Z M-12.546875 48.4140625 C-11.99581591 52.3633193 -11.15752129 55.76326424 -9.546875 59.4140625 C-5.86805427 56.12940113 -3.79537399 52.75045342 -1.546875 48.4140625 C-1.546875 47.7540625 -1.546875 47.0940625 -1.546875 46.4140625 C-5.63065577 46.4140625 -8.67003413 47.22118839 -12.546875 48.4140625 Z M67.453125 50.4140625 C66.24926037 53.13701816 65.06496742 55.86590387 63.890625 58.6015625 C63.54837891 59.37048828 63.20613281 60.13941406 62.85351562 60.93164062 C60.43395101 66.54007976 60.43395101 66.54007976 61.453125 72.4140625 C61.6704126 73.03385986 61.8877002 73.65365723 62.11157227 74.29223633 C62.88047252 76.45060103 63.69211092 78.58848301 64.515625 80.7265625 C64.79728516 81.46712891 65.07894531 82.20769531 65.36914062 82.97070312 C66.06031075 84.78648905 66.75624189 86.60046149 67.453125 88.4140625 C77.35093676 85.96644744 87.23450354 81.81777682 94.453125 74.4140625 C96.25904084 71.58194877 96.25904084 71.58194877 96.453125 68.4140625 C92.69596704 59.82627287 83.11710557 56.04735197 75.03125 52.39453125 C72.50657662 51.43439031 70.11264187 50.85890975 67.453125 50.4140625 Z M-47.26171875 63.98046875 C-49.18413891 66.12493136 -49.4800413 67.54021336 -49.546875 70.4140625 C-44.65563089 79.80525118 -36.07131579 83.76148569 -26.546875 87.4140625 C-24.55761595 87.80643929 -22.55843016 88.15958865 -20.546875 88.4140625 C-19.34061623 85.71276481 -18.15694108 83.0049489 -16.984375 80.2890625 C-16.64212891 79.52851562 -16.29988281 78.76796875 -15.94726562 77.984375 C-13.25935345 71.68542929 -13.55930524 67.92783211 -15.95703125 61.546875 C-16.50160831 60.20839645 -17.05249651 58.87246992 -17.609375 57.5390625 C-17.89103516 56.85070312 -18.17269531 56.16234375 -18.46289062 55.453125 C-19.15202766 53.77116341 -19.84868298 52.09228553 -20.546875 50.4140625 C-30.10784732 50.4140625 -40.46331167 57.77053426 -47.26171875 63.98046875 Z M-9.546875 79.4140625 C-10.05521091 80.66069581 -10.55318645 81.91155637 -11.046875 83.1640625 C-11.3253125 83.86015625 -11.60375 84.55625 -11.890625 85.2734375 C-12.74227827 87.67828945 -12.74227827 87.67828945 -12.546875 91.4140625 C-8.916875 91.7440625 -5.286875 92.0740625 -1.546875 92.4140625 C-2.94916081 88.90834797 -4.14543472 86.21455441 -6.109375 83.1015625 C-6.54378906 82.40417969 -6.97820313 81.70679687 -7.42578125 80.98828125 C-7.79574219 80.46878906 -8.16570313 79.94929688 -8.546875 79.4140625 C-8.876875 79.4140625 -9.206875 79.4140625 -9.546875 79.4140625 Z M55.453125 79.4140625 C54.41079823 80.79988332 53.41928874 82.22410692 52.453125 83.6640625 C51.916875 84.45296875 51.380625 85.241875 50.828125 86.0546875 C49.55795533 88.23418318 48.90487679 89.95201524 48.453125 92.4140625 C50.07893466 92.30007585 51.70379657 92.17250591 53.328125 92.0390625 C54.23304687 91.96945313 55.13796875 91.89984375 56.0703125 91.828125 C58.63254403 91.61838118 58.63254403 91.61838118 60.453125 89.4140625 C59.133125 86.1140625 57.813125 82.8140625 56.453125 79.4140625 C56.123125 79.4140625 55.793125 79.4140625 55.453125 79.4140625 Z M-15.546875 98.4140625 C-18.0822821 108.64131713 -19.80402355 119.80617032 -14.546875 129.4140625 C-11.67938999 132.04259042 -10.24006412 132.4140625 -6.359375 132.4140625 C1.93638811 130.23812463 10.56742703 125.76891031 16.453125 119.4140625 C16.453125 113.28789966 13.14650416 109.12735648 9.296875 104.58984375 C2.91797639 98.37464204 -7.1134902 98.67008226 -15.546875 98.4140625 Z M39.71630859 102.76757812 C35.36160448 107.31234101 32.1188885 112.73361357 29.453125 118.4140625 C42.04114909 128.8073108 42.04114909 128.8073108 57.453125 132.4140625 C61.26584743 129.59596331 63.06535493 126.88440149 64.453125 122.4140625 C64.64319414 119.57979627 64.73280615 116.86866519 64.703125 114.0390625 C64.71085937 113.30945313 64.71859375 112.57984375 64.7265625 111.828125 C64.70930794 106.99684751 63.97748641 102.99924484 62.453125 98.4140625 C50.47432383 98.25519649 50.47432383 98.25519649 39.71630859 102.76757812 Z M15.453125 101.4140625 C16.38125 102.6928125 17.309375 103.9715625 18.265625 105.2890625 C19.04873047 106.36800781 19.04873047 106.36800781 19.84765625 107.46875 C21.48585277 109.64434905 21.48585277 109.64434905 24.453125 111.4140625 C25.62269091 109.93718718 26.78870646 108.45749957 27.953125 106.9765625 C28.92765625 105.74099609 28.92765625 105.74099609 29.921875 104.48046875 C31.5523538 102.70880721 31.5523538 102.70880721 31.453125 101.4140625 C26.173125 101.4140625 20.893125 101.4140625 15.453125 101.4140625 Z " fill="#52C1DE" transform="translate(56.546875,10.5859375)"/>
<path d="M0 0 C3.21444422 2.84707917 4.97991449 5.81456013 6.1875 9.9375 C6.47043504 15.09034724 5.6730422 20.00221042 2.1875 23.9375 C-1.85817166 26.91701819 -5.45426317 28.28775643 -10.5 27.875 C-14.98603262 27.07337218 -18.23111874 26.08474293 -21.03515625 22.27734375 C-24.10801427 17.03786041 -24.33017072 12.76267731 -22.8125 6.9375 C-21.10538528 2.41866693 -18.33395525 0.53888019 -14.06640625 -1.40234375 C-9.13942124 -2.84542948 -4.69612015 -1.77408983 0 0 Z " fill="#52C0DD" transform="translate(88.8125,67.0625)"/>
</svg>
