<?xml version="1.0" encoding="UTF-8"?>
<svg version="1.1" xmlns="http://www.w3.org/2000/svg" width="128" height="128">
<path d="M0 0 C0.94651932 -0.07393478 1.89303864 -0.14786957 2.86824036 -0.2240448 C7.26396767 -0.44541641 11.65722787 -0.63125989 16.05712891 -0.74609375 C18.34846212 -0.82652239 20.63869914 -0.95510336 22.92431641 -1.13574219 C35.65293269 -2.13113649 46.11797094 -0.92719965 56.19894409 7.35299683 C65.50605401 15.62134076 70.56957745 23.99135616 71.47843933 36.51286316 C71.76868417 43.41127956 71.46133518 50.2650297 71.04168701 57.15100098 C70.87302676 60.33090999 70.80931772 63.50925081 70.74945354 66.69279766 C70.67601332 70.51078156 70.55957287 74.32691137 70.4284668 78.14331055 C70.39218453 79.22109551 70.39218453 79.22109551 70.3551693 80.32065392 C70.27586491 82.3467976 70.16286941 84.37153804 70.04833984 86.39599609 C69.95760445 88.11727974 69.95760445 88.11727974 69.86503601 89.87333679 C69.0843329 93.49051773 68.275598 94.72702486 65.22924805 96.8190918 C62.11767578 97.32702637 62.11767578 97.32702637 58.4128418 97.33666992 C57.73593292 97.3436792 57.05902405 97.35068848 56.36160278 97.35791016 C54.12956417 97.37548004 51.89879899 97.36387252 49.66674805 97.3503418 C48.11262774 97.35303704 46.55850907 97.35691973 45.00439453 97.36193848 C41.74942956 97.3678321 38.49490407 97.35927546 35.23999023 97.34057617 C31.0700126 97.31778607 26.90106473 97.33090997 22.73112488 97.35486603 C19.52258562 97.36932804 16.31429005 97.36471631 13.10574341 97.35435486 C11.5683683 97.35168866 10.03097099 97.35495364 8.49362183 97.36427307 C6.34370419 97.37444609 4.1954483 97.35893068 2.0456543 97.33666992 C0.82305908 97.33348755 -0.39953613 97.33030518 -1.65917969 97.32702637 C-4.77075195 96.8190918 -4.77075195 96.8190918 -7.16442871 95.31604004 C-9.45280058 91.75888171 -9.32966631 88.4457134 -9.28833008 84.3503418 C-9.29533936 83.49786865 -9.30234863 82.64539551 -9.30957031 81.76708984 C-9.32716764 78.9507586 -9.31552155 76.13543316 -9.30200195 73.3190918 C-9.30469637 71.36140754 -9.30857837 69.40372459 -9.31359863 67.44604492 C-9.31949603 63.34370173 -9.31092288 59.24170698 -9.29223633 55.1394043 C-9.26944671 49.87988551 -9.28256848 44.62118316 -9.30652618 39.36169434 C-9.32097758 35.31935469 -9.31638118 31.27720874 -9.30601501 27.23486328 C-9.30334591 25.29557194 -9.30662393 23.35626303 -9.31593323 21.41699219 C-9.32608797 18.70680129 -9.31061323 15.99793405 -9.28833008 13.2878418 C-9.296427 12.48564209 -9.30452393 11.68344238 -9.31286621 10.85693359 C-9.25985914 7.37853376 -9.0550953 5.22541274 -7.03657532 2.34098816 C-4.49992406 0.63718354 -3.02924918 0.22137012 0 0 Z " fill="#FECD28" transform="translate(34.770751953125,7.180908203125)"/>
<path d="M0 0 C0.92735962 -0.00570007 1.85471924 -0.01140015 2.81018066 -0.01727295 C4.76667153 -0.02667481 6.72317788 -0.03323765 8.6796875 -0.03710938 C11.62008597 -0.04675635 14.55976677 -0.07780203 17.5 -0.109375 C44.95614752 -0.26360999 44.95614752 -0.26360999 53.15625 5.203125 C52.82625 6.193125 52.49625 7.183125 52.15625 8.203125 C50.15234375 9.1171875 50.15234375 9.1171875 47.59375 9.828125 C46.76746094 10.06789063 45.94117187 10.30765625 45.08984375 10.5546875 C38.17405723 12.08334338 31.36610351 12.37183183 24.3125 12.40625 C22.92146057 12.41480011 22.92146057 12.41480011 21.50231934 12.42352295 C19.54582847 12.43292481 17.58932212 12.43948765 15.6328125 12.44335938 C12.69241403 12.45300635 9.75273323 12.48405203 6.8125 12.515625 C-20.64364752 12.66985999 -20.64364752 12.66985999 -28.84375 7.203125 C-28.51375 6.213125 -28.18375 5.223125 -27.84375 4.203125 C-25.83984375 3.2890625 -25.83984375 3.2890625 -23.28125 2.578125 C-22.45496094 2.33835937 -21.62867188 2.09859375 -20.77734375 1.8515625 C-13.86155723 0.32290662 -7.05360351 0.03441817 0 0 Z " fill="#000000" transform="translate(51.84375,115.796875)"/>
<path d="M0 0 C0.11611395 4.24977046 0.18722349 8.49913337 0.25 12.75 C0.30027344 14.55984375 0.30027344 14.55984375 0.3515625 16.40625 C0.36445312 17.56640625 0.37734375 18.7265625 0.390625 19.921875 C0.41157227 20.99018555 0.43251953 22.05849609 0.45410156 23.15917969 C0 26 0 26 -1.5078125 28.35546875 C-5.01359373 30.66884476 -8.21097805 30.4997898 -12.265625 30.390625 C-13.05902283 30.38496521 -13.85242065 30.37930542 -14.66986084 30.37347412 C-17.19719473 30.35113147 -19.72309665 30.30094176 -22.25 30.25 C-23.96612532 30.22993214 -25.68227292 30.21168187 -27.3984375 30.1953125 C-31.5995078 30.15127395 -35.79951135 30.08226326 -40 30 C-39.30702679 25.68499154 -38.37358206 23.86243327 -35 21 C-32.53879159 19.76939579 -30.74223134 19.7942277 -27.9921875 19.68359375 C-27.00605469 19.64169922 -26.01992187 19.59980469 -25.00390625 19.55664062 C-23.97136719 19.51732422 -22.93882813 19.47800781 -21.875 19.4375 C-20.83472656 19.39431641 -19.79445313 19.35113281 -18.72265625 19.30664062 C-16.14857472 19.2003712 -13.57439492 19.09833417 -11 19 C-10.96261719 18.19175781 -10.92523438 17.38351563 -10.88671875 16.55078125 C-10.82097656 15.48214844 -10.75523438 14.41351563 -10.6875 13.3125 C-10.62949219 12.25675781 -10.57148437 11.20101562 -10.51171875 10.11328125 C-9.95612831 6.73308595 -8.99588713 4.75974517 -7 2 C-4.35582586 0.26476072 -3.21534057 0 0 0 Z " fill="#D9AF23" transform="translate(104,74)"/>
<path d="M0 0 C1.26328125 0.03609375 2.5265625 0.0721875 3.828125 0.109375 C5.27445313 0.17898437 5.27445313 0.17898437 6.75 0.25 C6.05702679 4.56500846 5.12358206 6.38756673 1.75 9.25 C0.76 9.745 0.76 9.745 -0.25 10.25 C-0.25616333 11.48302856 -0.25616333 11.48302856 -0.26245117 12.7409668 C-0.29539243 16.47387042 -0.36604104 20.20514334 -0.4375 23.9375 C-0.44330078 25.23107422 -0.44910156 26.52464844 -0.45507812 27.85742188 C-0.48408203 29.10458984 -0.51308594 30.35175781 -0.54296875 31.63671875 C-0.5586792 32.78358154 -0.57438965 33.93044434 -0.59057617 35.11206055 C-1.45350394 39.21839544 -2.96672152 40.70103621 -6.25 43.25 C-9.0625 44.0625 -9.0625 44.0625 -11.25 44.25 C-11.34892174 38.6266798 -11.42149342 33.00386667 -11.46972656 27.37988281 C-11.48983452 25.46703265 -11.51712507 23.55424389 -11.55175781 21.64160156 C-11.60031249 18.89112189 -11.62297658 16.14145523 -11.640625 13.390625 C-11.66127014 12.53631897 -11.68191528 11.68201294 -11.70318604 10.80181885 C-11.70541669 4.89132113 -11.70541669 4.89132113 -9.44140625 1.703125 C-6.25679638 -0.40859491 -3.77291573 -0.13973762 0 0 Z " fill="#FFDC67" transform="translate(37.25,7.75)"/>
<path d="M0 0 C2.82424288 2.19022918 4.41508603 3.83017207 6 7 C5.984375 9.05859375 5.984375 9.05859375 5.75 11.4375 C5.68296875 12.21996094 5.6159375 13.00242187 5.546875 13.80859375 C4.91025468 16.35962232 3.99028875 17.33607581 2 19 C2.350625 19.5775 2.70125 20.155 3.0625 20.75 C4.14917407 23.35801776 3.93065133 24.39417629 3 27 C-0.16115776 25.63016497 -0.9927092 25.0109362 -3 22 C-4.11375 21.690625 -5.2275 21.38125 -6.375 21.0625 C-10.16808577 19.95073348 -11.5929079 19.05515535 -14 16 C-15.21762731 12.34711807 -15.39075851 9.84245864 -15 6 C-11.46378433 -0.48306207 -7.17022632 -1.61300658 0 0 Z " fill="#C06802" transform="translate(70,53)"/>
<path d="M0 0 C3.6531577 1.53786831 5.983949 3.73948958 8.765625 6.53515625 C10.09980469 7.87223633 10.09980469 7.87223633 11.4609375 9.23632812 C12.84152344 10.6352832 12.84152344 10.6352832 14.25 12.0625 C15.1949092 13.00886639 16.14021762 13.95483436 17.0859375 14.90039062 C24 21.85980776 24 21.85980776 24 23 C20.91684615 23.08733513 17.83401173 23.14050127 14.75 23.1875 C13.87730469 23.21263672 13.00460938 23.23777344 12.10546875 23.26367188 C5.64930246 23.33759744 5.64930246 23.33759744 2.453125 21.67578125 C0.09651792 18.95808115 -0.12358604 16.43694307 -0.09765625 12.98828125 C-0.09443359 12.23095703 -0.09121094 11.47363281 -0.08789062 10.69335938 C-0.07951172 9.90767578 -0.07113281 9.12199219 -0.0625 8.3125 C-0.05798828 7.51521484 -0.05347656 6.71792969 -0.04882812 5.89648438 C-0.0370585 3.93095743 -0.01912348 1.96546915 0 0 Z " fill="#BF6601" transform="translate(80,9)"/>
<path d="M0 0 C0.90105469 0.01804688 1.80210938 0.03609375 2.73046875 0.0546875 C3.41753906 0.07789063 4.10460938 0.10109375 4.8125 0.125 C5.4725 1.445 6.1325 2.765 6.8125 4.125 C3.1825 4.125 -0.4475 4.125 -4.1875 4.125 C-3.8575 5.115 -3.5275 6.105 -3.1875 7.125 C-1.15472527 8.07617358 -1.15472527 8.07617358 1.25 8.6875 C5.61519058 9.92769058 5.61519058 9.92769058 7.8125 12.125 C8.18380746 15.02119822 8.27833421 16.50388771 6.5 18.875 C3.72592737 20.92986861 1.16063492 21.28079418 -2.1875 21.3125 C-2.868125 21.32667969 -3.54875 21.34085938 -4.25 21.35546875 C-6.1875 21.125 -6.1875 21.125 -9.1875 19.125 C-9.1875 18.135 -9.1875 17.145 -9.1875 16.125 C-5.5575 16.125 -1.9275 16.125 1.8125 16.125 C2.1425 15.135 2.4725 14.145 2.8125 13.125 C1.575 13.0425 0.3375 12.96 -0.9375 12.875 C-3.91103732 12.48944365 -5.17701681 12.13190356 -7.75 10.4375 C-9.1875 8.125 -9.1875 8.125 -9.125 5 C-7.50944489 0.04563099 -4.70014023 -0.12208156 0 0 Z " fill="#C16A02" transform="translate(45.1875,52.875)"/>
<path d="M0 0 C1.32 0 2.64 0 4 0 C4 5.61 4 11.22 4 17 C7.3 17 10.6 17 14 17 C13.67 18.32 13.34 19.64 13 21 C10.85423363 21.02685938 8.70837355 21.04633088 6.5625 21.0625 C5.36753906 21.07410156 4.17257813 21.08570312 2.94140625 21.09765625 C0 21 0 21 -1 20 C-1.09860131 18.59651265 -1.13078937 17.18819523 -1.1328125 15.78125 C-1.13410156 14.93175781 -1.13539062 14.08226563 -1.13671875 13.20703125 C-1.13285156 12.31371094 -1.12898438 11.42039062 -1.125 10.5 C-1.12886719 9.60667969 -1.13273437 8.71335937 -1.13671875 7.79296875 C-1.13542969 6.94347656 -1.13414063 6.09398437 -1.1328125 5.21875 C-1.13168457 4.43435547 -1.13055664 3.64996094 -1.12939453 2.84179688 C-1 1 -1 1 0 0 Z " fill="#C36E04" transform="translate(80,53)"/>
<path d="M0 0 C2.32579101 3.48868651 2.41865457 4.89718519 2 9 C0.5 11.375 0.5 11.375 -1 13 C-3.3431213 12.74438677 -5.67843403 12.40729228 -8 12 C-9.59371004 8.81257991 -9.38224409 5.46851119 -9 2 C-6.80968037 -2.01558599 -4.00554886 -1.19314221 0 0 Z " fill="#FBC826" transform="translate(69,57)"/>
<path d="M0 0 C1.65 0.33 3.3 0.66 5 1 C5 6.94 5 12.88 5 19 C3.35 19.33 1.7 19.66 0 20 C-1.5220959 18.4779041 -1.12959521 17.11789918 -1.1328125 15 C-1.13410156 14.195625 -1.13539062 13.39125 -1.13671875 12.5625 C-1.13285156 11.716875 -1.12898438 10.87125 -1.125 10 C-1.12886719 9.154375 -1.13273437 8.30875 -1.13671875 7.4375 C-1.13542969 6.633125 -1.13414063 5.82875 -1.1328125 5 C-1.13168457 4.2575 -1.13055664 3.515 -1.12939453 2.75 C-1 1 -1 1 0 0 Z " fill="#FFFDF9" transform="translate(31,16)"/>
</svg>
